<svg width="407" height="375" viewBox="0 0 407 375" fill="none" xmlns="http://www.w3.org/2000/svg">
<rect width="223" height="241" rx="8" transform="matrix(-1 0 0 1 340.754 64.5086)" fill="#FE9689" fill-opacity="0.2"/>
<path d="M130.941 283.103C137.324 304.857 155.803 332.737 178.754 312.509" stroke="#7D757B" stroke-width="2"/>
<rect x="-1" y="1" width="27" height="96" rx="3" transform="matrix(-1 0 0 1 43.7542 273.509)" fill="#7D757B" stroke="white" stroke-width="2"/>
<rect x="-1" y="1" width="27" height="96" rx="3" transform="matrix(-1 0 0 1 388.754 273.509)" fill="#7D757B" stroke="white" stroke-width="2"/>
<rect width="196" height="6" rx="3" transform="matrix(-1 0 0 1 346.754 235.509)" fill="#B6A9C0"/>
<rect width="196" height="6" rx="3" transform="matrix(-1 0 0 1 346.754 224.509)" fill="#B6A9C0"/>
<rect width="196" height="6" rx="3" transform="matrix(-1 0 0 1 346.754 214.509)" fill="#B6A9C0"/>
<rect width="196" height="6" rx="3" transform="matrix(-1 0 0 1 346.754 203.509)" fill="#B6A9C0"/>
<rect width="196" height="6" rx="3" transform="matrix(-1 0 0 1 347.754 193.509)" fill="#B6A9C0"/>
<rect x="18.2542" y="276.009" width="18" height="95" rx="3.5" fill="#B6A9C0" stroke="white"/>
<rect x="371.754" y="274.509" width="18" height="96" rx="3" fill="#B6A9C0" stroke="white" stroke-width="2"/>
<rect x="137.254" y="3.00861" width="166" height="132" rx="6.5" fill="#FFD8BA" stroke="#FE9689" stroke-width="5"/>
<rect x="149.254" y="14.0086" width="143" height="109" rx="6.5" fill="white" stroke="#FE9689" stroke-width="5"/>
<rect x="1.75415" y="250.509" width="404" height="32" rx="8" fill="#7D757B"/>
<rect x="1.75415" y="247.509" width="404" height="20" rx="8" fill="#B6A9C0"/>
<rect x="316.254" y="82.0086" width="51" height="51" rx="5.5" fill="white" stroke="#FE9689" stroke-width="5"/>
<circle cx="341.254" cy="107.009" r="5.5" fill="#FE9689"/>
<rect x="252.254" y="148.009" width="51" height="51" rx="5.5" fill="white" stroke="#FE9689" stroke-width="5"/>
<path fill-rule="evenodd" clip-rule="evenodd" d="M345.129 94.874C345.711 96.0188 345.72 97.4256 345.03 98.6206C343.946 100.499 341.544 101.143 339.665 100.058C337.899 99.038 337.224 96.8526 338.053 95.0334L338.032 95.0332L341.695 87.5093L345.129 94.874Z" fill="#FE9689"/>
<path fill-rule="evenodd" clip-rule="evenodd" d="M346.129 120.656C346.711 119.512 346.72 118.105 346.03 116.91C344.946 115.031 342.544 114.388 340.665 115.472C338.899 116.492 338.224 118.678 339.053 120.497L339.032 120.497L342.695 128.021L346.129 120.656Z" fill="#FE9689"/>
<path fill-rule="evenodd" clip-rule="evenodd" d="M355.902 104.388C354.757 103.806 353.35 103.797 352.155 104.487C350.277 105.571 349.633 107.973 350.718 109.851C351.738 111.618 353.923 112.293 355.743 111.464L355.743 111.485L363.267 107.822L355.902 104.388Z" fill="#FE9689"/>
<path fill-rule="evenodd" clip-rule="evenodd" d="M328.119 103.388C329.264 102.806 330.67 102.797 331.865 103.487C333.744 104.571 334.387 106.973 333.303 108.851C332.283 110.618 330.097 111.293 328.278 110.464L328.278 110.485L320.754 106.822L328.119 103.388Z" fill="#FE9689"/>
<path fill-rule="evenodd" clip-rule="evenodd" d="M357.884 99.0238C357.285 100.87 355.792 102.386 353.778 102.925C350.616 103.773 347.366 101.896 346.518 98.7344C345.722 95.7605 347.334 92.7086 350.16 91.6513L350.137 91.6284L362.076 87.5089L357.884 99.0238Z" fill="#FE9689"/>
<path fill-rule="evenodd" clip-rule="evenodd" d="M325.193 97.9447C325.788 99.7785 327.271 101.284 329.272 101.82C332.412 102.661 335.64 100.798 336.481 97.6573C337.272 94.7037 335.671 91.6727 332.865 90.6227L332.887 90.5999L321.03 86.5086L325.193 97.9447Z" fill="#FE9689"/>
<path fill-rule="evenodd" clip-rule="evenodd" d="M358.361 116.728C357.786 114.955 356.353 113.5 354.418 112.982C351.382 112.168 348.262 113.97 347.448 117.006C346.683 119.862 348.231 122.792 350.944 123.807L350.923 123.829L362.387 127.785L358.361 116.728Z" fill="#FE9689"/>
<path fill-rule="evenodd" clip-rule="evenodd" d="M326.007 116.57C326.588 114.779 328.036 113.309 329.99 112.786C333.057 111.964 336.21 113.784 337.032 116.851C337.805 119.736 336.241 122.697 333.5 123.722L333.522 123.745L321.94 127.741L326.007 116.57Z" fill="#FE9689"/>
<circle cx="276.254" cy="173.009" r="5.5" fill="#FE9689"/>
<ellipse cx="245.147" cy="44.9859" rx="22.0626" ry="22.1884" fill="#FE9689"/>
<ellipse cx="233.38" cy="57.665" rx="16.1792" ry="15.8489" fill="#FE9689"/>
<path d="M224.721 73.4382C224.22 72.8982 223.821 72.6358 223.491 71.9234C222.876 70.599 222.475 69.1707 221.87 67.8417C220.925 65.7664 220.589 63.0485 220.288 60.7514C220.093 59.2541 219.8 57.8158 219.8 56.291C219.8 54.9928 220.441 53.5917 220.894 52.4197C222.57 48.0836 224.002 43.6117 226.205 39.5435C227.121 37.8506 227.884 35.9553 227.884 33.947C227.884 33.2632 227.884 32.5794 227.884 31.8956C227.884 31.5239 227.884 32.639 227.884 33.0107C227.884 34.074 227.824 35.155 227.972 36.2087C228.06 36.8344 228.321 37.4244 228.401 38.0286C228.542 39.0872 229.174 40.1762 229.504 41.2056C229.674 41.7326 229.957 42.25 230.168 42.7625C230.512 43.5959 230.521 44.54 230.735 45.4135C231.223 47.415 231.557 49.4924 232.101 51.4729C232.876 54.2882 233.91 57.1976 236.055 59.0472C236.171 59.1469 235.826 59.6991 235.704 59.8046C235.483 59.9951 235.479 61.3788 235.45 61.6876C235.304 63.2583 234.641 64.6352 233.849 65.9692C232.776 67.7755 231.506 69.5682 229.993 70.9661C229.442 71.4748 228.808 71.9223 228.235 72.4073C228.08 72.5392 227.181 73.6683 227.181 73.4382" stroke="#7D757B" stroke-linecap="round"/>
<path d="M225.424 73.249C226.749 73.249 227.978 73.5731 229.29 73.775C231.187 74.0671 233.124 74.1958 235.05 74.1958C236.158 74.1958 238.142 74.6276 239.091 74.0065C240.431 73.1299 241.629 72.0672 242.958 71.1661C244.341 70.2275 245.593 69.0557 246.999 68.1364C248.289 67.2934 248.705 66.0134 250.202 65.4854C251.44 65.0487 252.675 64.7021 253.804 63.9811C254.859 63.3073 255.747 62.4346 256.743 61.6562C258.044 60.6387 259.339 59.1445 259.339 57.3431" stroke="#7D757B" stroke-linecap="round"/>
<path d="M237.374 61.3197C237.374 60.7021 237.501 60.3361 237.94 59.8785C239.347 58.4095 240.681 56.9528 242.558 56.2176C243.986 55.6578 245.416 55.2739 246.941 55.2603C248.538 55.2461 250.264 55.032 251.783 55.639C255.274 57.0336 258.499 59.2368 262.327 59.2368" stroke="#7D757B" stroke-linecap="round"/>
<path d="M238.252 62.4555C240.515 62.4555 242.66 61.217 244.91 60.9617C247.718 60.6433 250.644 61.053 253.453 61.1195C257.149 61.207 260.82 61.5431 263.909 59.0471" stroke="#7D757B" stroke-linecap="round"/>
<path d="M236.67 56.775C236.67 54.7867 236.67 52.7985 236.67 50.8103C236.67 48.2207 237.049 45.2765 236.046 42.8573C234.361 38.7934 233.547 34.2491 230.178 31.3171C229.556 30.7753 228.411 30.0775 228.411 29.129C228.411 28.473 228.234 29.3764 228.138 29.6129C227.633 30.8482 227.084 32.0666 226.654 33.3369C225.822 35.7956 225.737 38.2437 226.302 40.6797" stroke="#7D757B" stroke-linecap="round"/>
<path d="M231.926 28.7501C231.926 26.8139 232.796 25.7939 233.859 24.2477C235.654 21.6356 238.958 22.1227 241.601 22.1227C242.723 22.1227 243.989 21.9699 245.066 21.5967C245.858 21.3227 245.588 21.7035 245.642 22.5224C245.81 25.0518 249.124 25.1397 250.905 25.3417C252.365 25.5073 253.877 26.5671 255.122 27.2774C255.641 27.5731 257.739 28.9587 257.739 29.4129C257.739 29.7528 254.183 29.3483 253.843 29.3077C251.184 28.9893 248.527 28.5608 245.848 28.5608C243.9 28.5608 241.83 28.3429 239.902 28.666C238.127 28.9635 236.26 29.0761 234.562 29.739C233.902 29.9967 232.973 30.6437 232.277 30.6437" stroke="#7D757B" stroke-linecap="round"/>
<path d="M258.11 29.6969C259.931 29.6969 262.15 29.3533 263.206 31.4011C263.859 32.6675 264.236 34.3896 265.002 35.5249C265.492 36.25 265.561 37.3191 266.017 38.0707C266.274 38.4927 268.313 39.6172 268.273 39.859C268.202 40.2772 266.017 42.3702 265.412 42.1839C265.293 42.1472 264.789 40.8735 264.699 40.6796C264.395 40.0231 264.055 39.6983 263.645 39.1542C263.205 38.5703 262.576 38.1143 261.966 37.7446C261.143 37.2455 260.734 36.502 260.228 35.6511C259.812 34.9511 259.277 34.3135 258.91 33.5787C258.632 33.0224 258.538 32.4309 258.11 31.9692" stroke="#7D757B" stroke-linecap="round"/>
<path d="M266.193 43.8986C266.193 47.4648 266.193 51.031 266.193 54.5972C266.193 55.5319 265.521 56.5202 265.139 57.3429" stroke="#7D757B" stroke-linecap="round"/>
<path d="M257.583 55.2603C258.977 55.2603 259.878 52.8796 260.384 51.7677C260.818 50.8147 261.398 49.6469 261.585 48.5907C261.785 47.4679 261.624 46.1857 261.624 45.0456C261.624 43.0821 261.91 40.7271 261.097 38.9756" stroke="#7D757B" stroke-linecap="round"/>
<path d="M237.901 41.0583C238.087 41.0598 240.888 40.8448 240.888 41.3529C240.888 41.8371 241.138 42.2434 241.327 42.6679C241.671 43.4359 241.999 44.2906 242.382 45.0243C243.023 46.2529 243.805 46.9665 244.754 47.8751C245.25 48.3503 245.751 48.9619 246.248 49.39C246.766 49.8371 245.984 51.3239 245.984 51.8516" stroke="#7D757B" stroke-linecap="round"/>
<path d="M238.779 38.9754C238.779 37.2566 240.916 36.4134 242.216 35.8405C244.828 34.6889 247.411 35.4861 250.153 35.5565C251.364 35.5875 252.69 35.497 253.873 35.851C254.347 35.9929 254.009 35.9437 253.716 36.093C253.076 36.4199 252.444 36.6798 251.881 37.1765C251.231 37.7498 251.432 38.5613 251.432 39.4277C251.432 40.3753 252.14 40.2314 252.662 40.7638C253.122 41.2337 253.564 41.7577 254.029 42.2365C254.459 42.6805 255.083 42.9361 255.464 43.4147C255.877 43.934 255.979 44.585 256.177 45.2241" stroke="#7D757B" stroke-linecap="round"/>
<path d="M244.578 38.9757C244.578 40.4167 246.364 41.5703 247.566 42.1001C247.844 42.223 250.687 43.3823 250.729 42.5734C250.825 40.7147 249.973 38.8665 248.435 37.9342C247.214 37.1945 245.531 37.3611 244.227 36.8928" stroke="#7D757B" stroke-linecap="round"/>
<path d="M248.62 51.2838C248.62 49.5484 250.032 48.4403 251.354 47.7281C252.815 46.9409 254.411 47.118 256.001 47.118" stroke="#7D757B" stroke-linecap="round"/>
<path d="M237.485 37.9558C237.485 36.972 237.419 36.0231 237.787 35.0944C238.389 33.5775 239.29 32.3554 240.565 31.4709C241.235 31.0059 241.871 30.4276 242.576 30.0317C243.018 29.7834 243.481 29.6584 243.919 29.4222" stroke="#7D757B" stroke-linecap="round"/>
<path d="M254.384 34.6034C254.203 33.9411 253.528 33.5803 252.97 33.3251C251.9 32.8358 250.919 32.3247 249.941 31.6361C249.589 31.3876 249.244 31.1862 248.869 30.9842C248.645 30.8637 248.468 30.6497 248.232 30.5652" stroke="#7D757B" stroke-linecap="round"/>
<path d="M254.424 34.7626H258.29" stroke="#7D757B" stroke-linecap="round"/>
<path d="M257.627 46.666H259.173" stroke="#7D757B" stroke-linecap="round"/>
<path d="M256.761 35.7401C256.761 37.6074 256.761 39.4748 256.761 41.3421C256.761 42.1332 256.481 43.7498 256.927 44.4697" stroke="#7D757B" stroke-linecap="round"/>
<path d="M237.896 46.9581C239.69 46.9581 240.636 48.1874 241.261 49.8222C241.425 50.2521 241.652 50.6011 242.047 50.8306C242.272 50.961 242.503 50.9315 242.719 51.0484" stroke="#7D757B" stroke-linecap="round"/>
<path d="M251.893 51.8152C253.416 51.8152 254.939 51.8152 256.462 51.8152C257.073 51.8152 257.204 51.5598 257.666 51.1525C258.054 50.8108 258.508 50.5197 258.914 50.1962C259.15 50.0078 259.089 49.6232 259.089 49.3441" stroke="#7D757B" stroke-linecap="round"/>
<ellipse cx="190.376" cy="63.7752" rx="18.7551" ry="17.5048" transform="rotate(-82.1166 190.376 63.7752)" fill="#FE9689"/>
<ellipse cx="198.912" cy="75.0552" rx="13.7538" ry="12.5034" transform="rotate(-82.1166 198.912 75.0552)" fill="#FE9689"/>
<path d="M210.228 84.0538C209.748 84.4174 209.496 84.7244 208.901 84.9257C207.794 85.2999 206.632 85.4827 205.522 85.8487C203.79 86.4203 201.627 86.409 199.797 86.4133C198.604 86.416 197.446 86.5066 196.255 86.3417C195.24 86.2012 194.22 85.5105 193.357 85.002C190.164 83.121 186.836 81.4314 183.914 79.1367C182.698 78.1818 181.306 77.3344 179.736 77.1171C179.202 77.0431 178.668 76.9691 178.133 76.8951C177.843 76.8549 178.714 76.9756 179.005 77.0158C179.836 77.1309 180.673 77.2986 181.514 77.2879C182.013 77.2815 182.505 77.1251 182.986 77.1231C183.83 77.1194 184.755 76.705 185.598 76.5379C186.029 76.4524 186.467 76.2699 186.892 76.1473C187.583 75.9481 188.322 76.0425 189.029 75.9574C190.65 75.7624 192.313 75.7064 193.924 75.4621C196.214 75.1149 198.608 74.5588 200.304 72.9523C200.395 72.8657 200.787 73.2158 200.855 73.3302C200.978 73.5369 202.059 73.6902 202.297 73.7477C203.507 74.0404 204.506 74.7477 205.456 75.5592C206.742 76.6581 207.995 77.9214 208.911 79.3471C209.244 79.8659 209.52 80.4479 209.832 80.9828C209.917 81.1283 210.695 82.0071 210.515 81.9822" stroke="#7D757B" stroke-linecap="round"/>
<path d="M210.162 83.4414C210.317 82.3256 210.713 81.3257 211.024 80.2429C211.473 78.6769 211.8 77.0595 212.024 75.4382C212.154 74.5046 212.722 72.8809 212.348 72.0143C211.819 70.7913 211.128 69.6674 210.579 68.4515C210.007 67.185 209.237 66.0041 208.683 64.7203C208.174 63.5429 207.222 63.0547 206.984 61.7371C206.787 60.647 206.66 59.5695 206.229 58.5408C205.825 57.5794 205.247 56.7371 204.755 55.8148C204.111 54.6092 203.095 53.3563 201.687 53.1614" stroke="#7D757B" stroke-linecap="round"/>
<path d="M202.233 72.0882C201.751 72.0213 201.479 71.874 201.173 71.4554C200.189 70.1115 199.206 68.8303 198.851 67.1709C198.58 65.9073 198.446 64.6617 198.614 63.3761C198.789 62.0301 198.823 60.5532 199.474 59.3396C200.971 56.5514 203.069 54.0743 203.515 50.8505" stroke="#7D757B" stroke-linecap="round"/>
<path d="M203.224 71.4713C203.487 69.566 202.77 67.626 202.833 65.7031C202.911 63.3048 203.572 60.8846 203.952 58.527C204.451 55.4244 205.142 52.3691 203.552 49.4983" stroke="#7D757B" stroke-linecap="round"/>
<path d="M198.6 72.1886C197.046 71.9734 195.493 71.7583 193.939 71.5432C191.915 71.263 189.659 70.6258 187.651 71.2087C184.279 72.188 180.633 72.3812 177.949 74.9007C177.453 75.3663 176.774 76.2545 176.033 76.1519C175.52 76.0809 176.206 76.3275 176.379 76.4344C177.286 76.9929 178.174 77.5876 179.116 78.087C180.941 79.0535 182.844 79.3898 184.813 79.1774" stroke="#7D757B" stroke-linecap="round"/>
<path d="M176.147 73.1514C174.633 72.9419 173.938 72.0988 172.853 71.0365C171.022 69.2418 171.787 66.5125 172.095 64.2875C172.226 63.3427 172.255 62.2598 172.089 61.3122C171.967 60.6164 172.233 60.8844 172.879 60.9273C174.875 61.0598 175.33 58.2793 175.696 56.8014C175.995 55.59 177 54.4311 177.7 53.4595C177.992 53.0549 179.319 51.4382 179.674 51.4874C179.94 51.5241 179.209 54.4747 179.138 54.7561C178.579 56.9612 177.934 59.1514 177.622 61.4081C177.395 63.0479 176.983 64.7677 177.011 66.4259C177.036 67.9525 176.907 69.5373 177.227 71.0388C177.351 71.6224 177.748 72.4743 177.667 73.0603" stroke="#7D757B" stroke-linecap="round"/>
<path d="M179.939 51.2056C180.152 49.6723 180.142 47.7662 181.865 47.0988C182.931 46.686 184.321 46.5547 185.297 46.0323C185.921 45.6987 186.765 45.7555 187.405 45.4529C187.765 45.2829 188.881 43.6868 189.066 43.7474C189.384 43.852 190.765 45.9182 190.549 46.4076C190.506 46.504 189.452 46.7902 189.29 46.845C188.742 47.0304 188.448 47.2811 187.975 47.5677C187.468 47.8753 187.038 48.3555 186.678 48.8292C186.192 49.4685 185.563 49.7325 184.839 50.066C184.244 50.3403 183.683 50.7218 183.066 50.9515C182.599 51.1254 182.126 51.1406 181.715 51.4515" stroke="#7D757B" stroke-linecap="round"/>
<path d="M191.98 45.9355C194.767 46.3214 197.554 46.7073 200.34 47.0932C201.071 47.1943 201.765 47.8677 202.363 48.2781" stroke="#7D757B" stroke-linecap="round"/>
<path d="M199.854 54.4156C200.017 53.2416 198.262 52.2249 197.452 51.6784C196.758 51.2099 195.913 50.5958 195.109 50.3234C194.255 50.0339 193.234 50.0303 192.343 49.907C190.809 49.6945 189.002 49.1993 187.538 49.6941" stroke="#7D757B" stroke-linecap="round"/>
<path d="M186.461 69.4521C186.484 69.2953 186.643 66.9135 187.04 66.9685C187.418 67.0208 187.765 66.8546 188.119 66.7408C188.759 66.5349 189.465 66.351 190.083 66.1079C191.118 65.7008 191.767 65.1193 192.587 64.4188C193.017 64.0524 193.553 63.6968 193.945 63.3249C194.355 62.9366 195.426 63.7561 195.838 63.8132" stroke="#7D757B" stroke-linecap="round"/>
<path d="M184.936 68.4868C183.593 68.3009 183.183 66.4103 182.887 65.2539C182.292 62.9295 183.216 60.8409 183.59 58.5397C183.756 57.5232 183.84 56.3972 184.254 55.4394C184.42 55.0557 184.343 55.3348 184.425 55.5972C184.606 56.1718 184.735 56.7317 185.058 57.2599C185.43 57.8695 186.088 57.7879 186.765 57.8817C187.505 57.9842 187.475 57.3719 187.952 56.9904C188.373 56.6536 188.834 56.3382 189.262 55.9989C189.66 55.6842 189.932 55.1867 190.35 54.9179C190.804 54.6263 191.325 54.6109 191.848 54.5136" stroke="#7D757B" stroke-linecap="round"/>
<path d="M185.613 63.6038C186.739 63.7597 187.848 62.3809 188.402 61.4263C188.531 61.2048 189.768 58.9366 189.141 58.814C187.7 58.5321 186.156 59.0496 185.248 60.2439C184.528 61.1915 184.462 62.6269 183.944 63.6743" stroke="#7D757B" stroke-linecap="round"/>
<path d="M195.702 61.5319C194.346 61.3441 193.645 60.0354 193.242 58.8453C192.797 57.5298 193.122 56.2054 193.307 54.8662" stroke="#7D757B" stroke-linecap="round"/>
<path d="M183.988 69.4664C183.219 69.36 182.47 69.3126 181.787 68.9021C180.672 68.2316 179.822 67.3402 179.28 66.1713C178.994 65.5568 178.617 64.9585 178.39 64.322C178.247 63.9227 178.203 63.5194 178.07 63.1247" stroke="#7D757B" stroke-linecap="round"/>
<path d="M183.339 54.8736C182.8 54.9548 182.44 55.484 182.175 55.9261C181.668 56.7738 181.154 57.5453 180.502 58.2937C180.267 58.5638 180.069 58.8325 179.868 59.1262C179.747 59.3016 179.56 59.4278 179.466 59.6168" stroke="#7D757B" stroke-linecap="round"/>
<path d="M183.468 54.8575L183.919 51.6019" stroke="#7D757B" stroke-linecap="round"/>
<path d="M193.144 53.4481L193.324 52.1458" stroke="#7D757B" stroke-linecap="round"/>
<path d="M184.505 52.9946C185.964 53.1966 187.423 53.3987 188.882 53.6007C189.5 53.6863 190.731 54.0971 191.346 53.7999" stroke="#7D757B" stroke-linecap="round"/>
<path d="M191.071 70.0945C191.281 68.5834 192.351 67.9198 193.702 67.5707C194.057 67.4789 194.356 67.3258 194.582 67.0176C194.71 66.8424 194.714 66.6451 194.83 66.4751" stroke="#7D757B" stroke-linecap="round"/>
<path d="M196.499 58.8336C196.676 57.5511 196.854 56.2686 197.031 54.9861C197.103 54.4721 196.918 54.3338 196.654 53.9007C196.432 53.5374 196.258 53.1228 196.052 52.7466C195.932 52.5274 195.625 52.5366 195.407 52.5064" stroke="#7D757B" stroke-linecap="round"/>
<path d="M217.561 108.962C217.561 105.688 217.561 102.414 217.561 99.1399C217.561 96.4218 217.735 93.7553 218.063 91.0544C218.286 89.2161 218.448 87.3486 218.918 85.5533C219.505 83.3102 220.251 80.6929 221.475 78.6956C221.964 77.8973 222.498 77.0632 223.096 76.3418C223.296 76.1 223.567 75.9264 223.666 75.6296" stroke="#7D757B" stroke-linecap="round"/>
<path d="M228.306 74.2865C228.306 74.832 228.147 75.3347 227.987 75.8534C227.469 77.5297 227.14 79.2604 226.773 80.9747C225.709 85.9367 224.808 91.0223 224.426 96.0875C224.019 101.484 224.232 106.8 224.493 112.191C224.579 113.951 225.009 115.757 225.009 117.509" stroke="#7D757B" stroke-linecap="round"/>
<path d="M208.77 86.8624C209.843 87.9349 211.057 88.9559 211.823 90.2811C212.499 91.451 213.108 92.6721 213.532 93.944" stroke="#7D757B" stroke-linecap="round"/>
<path d="M212.067 79.9029C212.592 80.0341 213.14 80.5505 213.573 80.8525C214.454 81.4676 215.305 82.1439 216.042 82.9282C216.802 83.7381 217.489 84.6186 217.928 85.6414" stroke="#7D757B" stroke-linecap="round"/>
<path d="M227.167 78.0582C228.415 78.0582 229.395 80.0743 229.974 80.9433C230.048 81.0549 230.6 81.7523 230.603 81.673C230.648 80.3442 230.603 79.006 230.603 77.6765C230.603 76.4087 230.872 74.7732 230.591 73.5117C230.432 72.7958 229.857 73.0343 230.008 73.7137C230.332 75.1723 232.729 76.6582 233.881 77.2948C235.566 78.2263 237.636 79.62 239.606 79.6747C239.75 79.6788 240.482 79.9657 240.482 79.7533C240.482 79.1515 239.662 78.3463 239.336 77.901C238.436 76.6679 237.353 75.8037 236.058 75.0272" stroke="#7D757B" stroke-linecap="round"/>
<path d="M220.499 66.9444C219.171 66.9444 218.519 66.7128 217.67 65.7432C217.578 65.6374 217.174 64.9714 217.109 65.3054C216.843 66.6714 217.843 68.5695 218.366 69.7734C219.693 72.8267 221.628 73.6127 224.743 73.6127" stroke="#7D757B" stroke-linecap="round"/>
<path d="M224.339 73.2086C223.19 73.2086 222.041 73.2086 220.892 73.2086C219.952 73.2086 219.382 73.444 218.524 73.8148C218.183 73.9617 217.221 74.421 217.592 74.421C219.273 74.421 220.898 75.4554 222.61 75.4313C224.331 75.4071 224.45 74.0469 225.753 73.6127" stroke="#7D757B" stroke-linecap="round"/>
<path d="M206.351 85.7426C206.103 87.6007 205.13 89.5167 204.318 91.1714C203.774 92.281 203.303 93.537 202.601 94.561C202.43 94.8096 202.258 95.028 202.07 95.2626C201.948 95.4142 201.53 95.6449 201.709 95.7215C201.858 95.7853 202.874 94.9859 202.968 94.9282C204.137 94.2085 205.237 93.465 206.233 92.5089C208.099 90.7178 209.19 88.4552 210.776 86.4573C211.632 85.38 211.602 84.3264 210.009 84.3264C209.761 84.3264 209.565 84.3329 209.328 84.4182C208.921 84.5647 210.351 84.6807 210.442 84.7067C212.521 85.3008 214.063 87.3103 215.845 88.4504C216.063 88.5903 217.611 89.0234 217.3 88.339C216.929 87.5218 216.431 86.7412 216.002 85.9524C215.346 84.747 214.566 83.3471 213.13 82.9693C212.516 82.8076 211.58 82.7922 210.954 82.7922" stroke="#7D757B" stroke-linecap="round"/>
<path d="M210.954 82.4381C211.058 81.2344 211.889 79.9923 212.54 79.0156C213.173 78.0672 213.928 77.0889 214.835 76.3799C215.308 76.0107 216.034 75.3601 216.14 76.3144C216.213 76.9762 216.187 77.7489 216.12 78.4059C215.957 80.0205 214.838 81.3213 213.812 82.5037C213.327 83.0627 212.389 83.1614 211.78 83.6182" stroke="#7D757B" stroke-linecap="round"/>
<path d="M227.73 115.473C229.012 115.308 230.284 114.943 231.516 114.562C233.845 113.842 235.102 112.116 236.697 110.321C240.175 106.408 242.718 101.9 245.891 97.7684C247.666 95.4564 249.728 93.4544 252.153 91.8193C252.473 91.6032 253.912 90.4191 254.117 90.6238" stroke="#7D757B" stroke-linecap="round"/>
<path d="M236.697 109.069C236.697 108.032 236.561 106.847 236.868 105.852C237.793 102.845 240.019 99.8434 241.65 97.256C243.576 94.1983 245.509 90.9521 248.026 88.3183C250.413 85.8193 254.478 82.4479 258.13 82.1557C259.337 82.0592 260.384 81.5077 261.589 81.3872C262.526 81.2935 263.453 80.9887 264.364 80.761C264.824 80.646 265.98 80.6213 266.357 80.3198C266.81 79.9568 268.86 80.8891 269.644 80.8891C269.952 80.8891 273.046 81.1007 273.046 81.2733C273.046 81.3585 271.897 81.663 271.736 81.7145C269.502 82.4329 267.478 83.6743 265.275 84.4756C263.63 85.0737 261.621 85.5623 260.009 86.3258C258.962 86.8217 257.161 87.2667 256.423 88.1902C256.098 88.5957 254.408 89.343 253.861 89.343" stroke="#7D757B" stroke-linecap="round"/>
<path d="M239.771 108.556C241.839 108.556 244.107 109.111 245.777 107.731C248.682 105.328 251.449 102.681 253.547 99.5332C255.35 96.8299 257.632 94.5443 259.753 92.104C261.967 89.5553 264.143 86.7651 266.655 84.504C267.667 83.5934 268.943 83.1308 270 82.4261" stroke="#7D757B" stroke-linecap="round"/>
<path d="M174.144 94.5861C175.757 94.5861 177.371 94.5861 178.984 94.5861C181.068 94.5861 183.241 94.3631 185.17 95.3018C187.406 96.3893 189.461 98.0349 191.47 99.4826C193.308 100.807 195.161 102.108 196.894 103.569C200.153 106.316 203.842 108.892 206.668 112.11C207.349 112.886 208.567 114.586 209.737 114.586" stroke="#7D757B" stroke-linecap="round"/>
<path d="M160.754 99.3319C162.364 97.807 164.457 96.6312 166.357 95.5183C167.995 94.5588 169.739 93.5559 171.611 93.1548C173.686 92.7102 175.763 92.2806 177.826 91.78C181.072 90.992 184.712 90.1527 188.052 90.9514C191.319 91.7326 193.298 94.0237 196.093 95.6784C196.939 96.1788 197.817 96.624 198.513 97.3356C199.088 97.9235 199.345 98.7226 199.775 99.4072C200.601 100.722 201.925 101.87 202.317 103.4C202.621 104.584 202.953 105.757 203.297 106.921C203.442 107.414 203.621 108.116 203.937 108.522C203.976 108.573 203.57 108.484 203.466 108.484" stroke="#7D757B" stroke-linecap="round"/>
<path d="M204.144 110.01C202.276 108.646 200.44 106.977 198.212 106.225C196.547 105.662 194.8 105.289 193.09 104.887C189.993 104.161 186.886 103.527 183.824 102.656C179.426 101.405 175.263 99.2323 170.66 98.8611C168.651 98.699 166.567 98.4522 164.577 98.814C164.269 98.87 163.642 99.5143 163.466 99.1624" stroke="#7D757B" stroke-linecap="round"/>
<path fill-rule="evenodd" clip-rule="evenodd" d="M280.129 160.874C280.711 162.019 280.72 163.426 280.03 164.621C278.946 166.499 276.544 167.143 274.665 166.058C272.899 165.038 272.224 162.853 273.053 161.033L273.032 161.033L276.695 153.509L280.129 160.874Z" fill="#FE9689"/>
<path fill-rule="evenodd" clip-rule="evenodd" d="M281.129 186.656C281.711 185.512 281.72 184.105 281.03 182.91C279.946 181.031 277.544 180.388 275.665 181.472C273.899 182.492 273.224 184.678 274.053 186.497L274.032 186.497L277.695 194.021L281.129 186.656Z" fill="#FE9689"/>
<path fill-rule="evenodd" clip-rule="evenodd" d="M290.902 170.388C289.757 169.806 288.35 169.797 287.155 170.487C285.277 171.571 284.633 173.973 285.718 175.851C286.738 177.618 288.923 178.293 290.743 177.464L290.743 177.485L298.267 173.822L290.902 170.388Z" fill="#FE9689"/>
<path fill-rule="evenodd" clip-rule="evenodd" d="M263.119 169.388C264.264 168.806 265.67 168.797 266.865 169.487C268.744 170.571 269.387 172.973 268.303 174.851C267.283 176.618 265.097 177.293 263.278 176.464L263.278 176.485L255.754 172.822L263.119 169.388Z" fill="#FE9689"/>
<path fill-rule="evenodd" clip-rule="evenodd" d="M292.884 165.024C292.285 166.87 290.792 168.386 288.778 168.925C285.616 169.773 282.366 167.896 281.518 164.734C280.722 161.76 282.334 158.709 285.16 157.651L285.137 157.628L297.076 153.509L292.884 165.024Z" fill="#FE9689"/>
<path fill-rule="evenodd" clip-rule="evenodd" d="M260.193 163.945C260.788 165.779 262.271 167.284 264.272 167.82C267.412 168.661 270.64 166.798 271.481 163.657C272.272 160.704 270.671 157.673 267.865 156.623L267.887 156.6L256.03 152.509L260.193 163.945Z" fill="#FE9689"/>
<path fill-rule="evenodd" clip-rule="evenodd" d="M293.361 182.728C292.786 180.955 291.353 179.5 289.418 178.982C286.382 178.168 283.262 179.97 282.448 183.006C281.683 185.862 283.231 188.792 285.944 189.807L285.923 189.829L297.387 193.785L293.361 182.728Z" fill="#FE9689"/>
<path fill-rule="evenodd" clip-rule="evenodd" d="M261.007 182.57C261.588 180.779 263.036 179.309 264.99 178.786C268.057 177.964 271.21 179.784 272.032 182.851C272.805 185.736 271.241 188.697 268.5 189.722L268.522 189.745L256.94 193.741L261.007 182.57Z" fill="#FE9689"/>
<circle cx="296.254" cy="11.0086" r="1.5" fill="#FE9689"/>
<circle cx="295.254" cy="136.009" r="1.5" fill="#FE9689"/>
<circle cx="144.254" cy="10.0086" r="1.5" fill="#FE9689"/>
<circle cx="177.254" cy="8.00861" r="1.5" fill="#FE9689"/>
<circle cx="207.254" cy="8.00861" r="1.5" fill="#FE9689"/>
<circle cx="237.254" cy="8.00861" r="1.5" fill="#FE9689"/>
<circle cx="267.254" cy="8.00861" r="1.5" fill="#FE9689"/>
<circle cx="297.254" cy="40.0086" r="1.5" transform="rotate(90 297.254 40.0086)" fill="#FE9689"/>
<circle cx="297.254" cy="70.0086" r="1.5" transform="rotate(90 297.254 70.0086)" fill="#FE9689"/>
<circle cx="297.254" cy="100.009" r="1.5" transform="rotate(90 297.254 100.009)" fill="#FE9689"/>
<circle cx="296.254" cy="127.009" r="1.5" transform="rotate(90 296.254 127.009)" fill="#FE9689"/>
<circle cx="143.254" cy="40.0086" r="1.5" transform="rotate(90 143.254 40.0086)" fill="#FE9689"/>
<circle cx="143.254" cy="70.0086" r="1.5" transform="rotate(90 143.254 70.0086)" fill="#FE9689"/>
<circle cx="143.254" cy="100.009" r="1.5" transform="rotate(90 143.254 100.009)" fill="#FE9689"/>
<circle cx="178.254" cy="129.009" r="1.5" fill="#FE9689"/>
<circle cx="208.254" cy="129.009" r="1.5" fill="#FE9689"/>
<circle cx="238.254" cy="129.009" r="1.5" fill="#FE9689"/>
<circle cx="268.254" cy="129.009" r="1.5" fill="#FE9689"/>
<path d="M1.75415 259.509C1.75415 263.009 3.25415 267.009 8.76282 267.904C96.8719 265.973 389.754 268.009 389.754 268.009C389.754 268.009 405.754 270.009 405.754 259.509" stroke="white" stroke-width="2" stroke-linecap="round"/>
<path d="M1.75424 259.009C1.75424 255.509 1.2542 249.009 8.75421 248.009C97.2542 248.009 337.254 247.509 390.254 247.509C396.754 247.509 405.754 246.509 405.754 258.509" stroke="white" stroke-width="2" stroke-linecap="round"/>
<path d="M1.75415 261.509C1.75415 268.509 1.75416 274.045 2.75417 277.509C4.05351 282.009 8.75415 282.509 8.75415 282.509C8.75415 282.509 363.768 283.863 390.254 283.009C405.754 282.509 405.754 281.009 405.754 259.009" stroke="white" stroke-width="2" stroke-linecap="round"/>
<mask id="path-116-inside-1_197_2094" fill="white">
<path d="M364.263 255.673C368.435 255.673 371.817 252.291 371.817 248.119C371.817 246.802 371.48 245.565 370.888 244.487C377.743 237.623 382.119 227.185 382.119 215.495C382.119 203.037 377.15 192 369.507 185.196C372.452 184.165 374.564 181.361 374.564 178.064C374.564 173.892 371.182 170.509 367.01 170.508L336.103 170.508C331.93 170.509 328.548 173.892 328.548 178.064C328.548 181.361 330.661 184.165 333.606 185.196C325.963 192 320.993 203.037 320.993 215.495C320.993 226.94 325.189 237.185 331.798 244.051C331.046 245.226 330.608 246.621 330.608 248.119C330.609 252.291 333.991 255.673 338.163 255.673L364.263 255.673Z"/>
</mask>
<path d="M364.263 255.673C368.435 255.673 371.817 252.291 371.817 248.119C371.817 246.802 371.48 245.565 370.888 244.487C377.743 237.623 382.119 227.185 382.119 215.495C382.119 203.037 377.15 192 369.507 185.196C372.452 184.165 374.564 181.361 374.564 178.064C374.564 173.892 371.182 170.509 367.01 170.508L336.103 170.508C331.93 170.509 328.548 173.892 328.548 178.064C328.548 181.361 330.661 184.165 333.606 185.196C325.963 192 320.993 203.037 320.993 215.495C320.993 226.94 325.189 237.185 331.798 244.051C331.046 245.226 330.608 246.621 330.608 248.119C330.609 252.291 333.991 255.673 338.163 255.673L364.263 255.673Z" fill="white"/>
<path d="M364.263 255.673L364.263 260.673L364.263 260.673L364.263 255.673ZM371.817 248.119L376.817 248.119L376.817 248.119L371.817 248.119ZM370.888 244.487L366.505 246.894L364.7 243.607L367.35 240.954L370.888 244.487ZM382.119 215.495L387.119 215.495L387.119 215.495L382.119 215.495ZM369.507 185.196L366.182 188.931L359.838 183.283L367.855 180.477L369.507 185.196ZM374.564 178.064L379.564 178.064L379.564 178.064L374.564 178.064ZM367.01 170.508L367.01 165.508L367.01 165.508L367.01 170.508ZM336.103 170.508L336.102 165.508L336.103 165.508L336.103 170.508ZM328.548 178.064L323.548 178.064L323.548 178.064L328.548 178.064ZM333.606 185.196L335.258 180.477L343.275 183.283L336.931 188.931L333.606 185.196ZM320.993 215.495L315.993 215.495L315.993 215.495L320.993 215.495ZM331.798 244.051L335.4 240.584L338.136 243.426L336.009 246.747L331.798 244.051ZM330.608 248.119L325.608 248.119L325.608 248.119L330.608 248.119ZM338.163 255.673L338.163 260.673L338.163 260.673L338.163 255.673ZM364.263 255.673L364.262 250.673C365.674 250.673 366.817 249.53 366.817 248.119L371.817 248.119L376.817 248.119C376.817 255.053 371.196 260.673 364.263 260.673L364.263 255.673ZM371.817 248.119L366.817 248.119C366.817 247.668 366.704 247.255 366.505 246.894L370.888 244.487L375.27 242.08C376.256 243.874 376.817 245.937 376.817 248.119L371.817 248.119ZM370.888 244.487L367.35 240.954C373.191 235.104 377.119 225.974 377.119 215.495L382.119 215.495L387.119 215.495C387.119 228.396 382.294 240.141 374.426 248.02L370.888 244.487ZM382.119 215.495L377.119 215.495C377.119 204.318 372.656 194.693 366.182 188.931L369.507 185.196L372.831 181.461C381.645 189.307 387.119 201.756 387.119 215.495L382.119 215.495ZM369.507 185.196L367.855 180.477C368.857 180.126 369.564 179.171 369.564 178.064L374.564 178.064L379.564 178.064C379.564 183.551 376.047 188.204 371.159 189.915L369.507 185.196ZM374.564 178.064L369.564 178.064C369.564 176.652 368.42 175.508 367.01 175.508L367.01 170.508L367.01 165.508C373.944 165.509 379.564 171.131 379.564 178.064L374.564 178.064ZM367.01 170.508L367.01 175.508L336.103 175.508L336.103 170.508L336.103 165.508L367.01 165.508L367.01 170.508ZM336.103 170.508L336.103 175.508C334.692 175.509 333.548 176.653 333.548 178.064L328.548 178.064L323.548 178.064C323.548 171.131 329.168 165.509 336.102 165.508L336.103 170.508ZM328.548 178.064L333.548 178.064C333.548 179.17 334.255 180.125 335.258 180.477L333.606 185.196L331.955 189.915C327.067 188.204 323.548 183.552 323.548 178.064L328.548 178.064ZM333.606 185.196L336.931 188.931C330.458 194.693 325.993 204.318 325.993 215.495L320.993 215.495L315.993 215.495C315.993 201.756 321.468 189.307 330.282 181.461L333.606 185.196ZM320.993 215.495L325.993 215.495C325.993 225.752 329.758 234.722 335.4 240.584L331.798 244.051L328.196 247.519C320.62 239.649 315.993 228.129 315.993 215.495L320.993 215.495ZM331.798 244.051L336.009 246.747C335.754 247.145 335.608 247.609 335.608 248.119L330.608 248.119L325.608 248.119C325.608 245.633 326.338 243.307 327.587 241.355L331.798 244.051ZM330.608 248.119L335.608 248.119C335.608 249.529 336.752 250.673 338.163 250.673L338.163 255.673L338.163 260.673C331.229 260.673 325.609 255.053 325.608 248.119L330.608 248.119ZM338.163 255.673L338.163 250.673L364.263 250.673L364.263 255.673L364.263 260.673L338.163 260.673L338.163 255.673Z" fill="#7D757B" mask="url(#path-116-inside-1_197_2094)"/>
<ellipse cx="7.5" cy="7" rx="7.5" ry="7" transform="matrix(-0.926175 0.377094 0.377094 0.926175 331.135 145.639)" fill="#FE9689"/>
<ellipse cx="5.5" cy="5" rx="5.5" ry="5" transform="matrix(-0.926175 0.377094 0.377094 0.926175 335.25 150.442)" fill="#FE9689"/>
<path d="M336.645 160.646C336.738 160.424 336.832 160.296 336.852 160.046C336.888 159.58 336.844 159.111 336.876 158.645C336.927 157.918 336.709 157.08 336.531 156.371C336.414 155.908 336.335 155.45 336.154 155.005C335.999 154.626 335.631 154.298 335.349 154.014C334.305 152.962 333.322 151.839 332.145 150.932C331.655 150.555 331.189 150.099 330.951 149.512C330.869 149.313 330.788 149.113 330.706 148.913C330.662 148.804 330.795 149.13 330.839 149.239C330.966 149.55 331.113 149.858 331.192 150.185C331.239 150.379 331.227 150.585 331.273 150.771C331.355 151.099 331.285 151.498 331.304 151.841C331.313 152.017 331.286 152.204 331.28 152.381C331.271 152.669 331.38 152.946 331.417 153.228C331.501 153.876 331.643 154.526 331.708 155.174C331.799 156.096 331.819 157.079 331.364 157.894C331.339 157.938 331.514 158.055 331.565 158.07C331.657 158.098 331.823 158.501 331.869 158.588C332.101 159.028 332.474 159.345 332.882 159.634C333.435 160.024 334.048 160.385 334.691 160.599C334.925 160.677 335.177 160.727 335.415 160.795C335.48 160.814 335.897 161.029 335.87 160.961" stroke="#7D757B" stroke-linecap="round"/>
<path d="M336.401 160.681C335.984 160.851 335.635 161.103 335.246 161.33C334.684 161.659 334.089 161.945 333.483 162.191C333.134 162.333 332.56 162.714 332.188 162.654C331.662 162.57 331.158 162.413 330.633 162.32C330.085 162.223 329.552 162.041 329 161.953C328.493 161.872 328.21 161.551 327.676 161.589C327.234 161.62 326.804 161.677 326.363 161.611C325.95 161.549 325.567 161.408 325.161 161.308C324.63 161.178 324.045 160.907 323.83 160.381" stroke="#7D757B" stroke-linecap="round"/>
<path d="M331.219 158.727C331.146 158.546 331.062 158.456 330.87 158.378C330.252 158.13 329.658 157.875 328.98 157.901C328.464 157.92 327.968 157.991 327.486 158.183C326.982 158.383 326.413 158.542 326.007 158.914C325.074 159.769 324.32 160.826 323.115 161.317" stroke="#7D757B" stroke-linecap="round"/>
<path d="M331.078 159.171C330.365 159.462 329.543 159.375 328.804 159.589C327.882 159.855 327.009 160.35 326.133 160.73C324.98 161.229 323.864 161.798 322.594 161.465" stroke="#7D757B" stroke-linecap="round"/>
<path d="M330.9 157.309C330.663 156.728 330.427 156.147 330.19 155.566C329.882 154.809 329.413 153.998 329.441 153.162C329.488 151.759 329.203 150.327 329.915 149.038C330.047 148.8 330.324 148.449 330.211 148.172C330.133 147.981 330.296 148.222 330.355 148.279C330.661 148.575 330.979 148.86 331.265 149.177C331.82 149.788 332.137 150.493 332.249 151.277" stroke="#7D757B" stroke-linecap="round"/>
<path d="M329.06 148.512C328.829 147.946 328.434 147.76 327.915 147.444C327.039 146.911 326.057 147.477 325.225 147.816C324.872 147.96 324.455 148.077 324.071 148.106C323.79 148.128 323.92 148.205 324 148.451C324.248 149.211 323.216 149.662 322.679 149.949C322.239 150.185 321.889 150.688 321.581 151.055C321.453 151.208 320.958 151.882 321.012 152.015C321.052 152.114 322.123 151.54 322.225 151.485C323.025 151.051 323.81 150.585 324.654 150.241C325.267 149.992 325.893 149.663 326.538 149.51C327.133 149.369 327.734 149.163 328.347 149.139C328.586 149.13 328.955 149.2 329.174 149.11" stroke="#7D757B" stroke-linecap="round"/>
<path d="M320.928 152.145C320.355 152.379 319.615 152.563 319.527 153.296C319.472 153.75 319.558 154.302 319.452 154.732C319.384 155.006 319.489 155.328 319.435 155.606C319.404 155.762 318.896 156.352 318.938 156.417C319.009 156.53 319.946 156.862 320.115 156.73C320.148 156.704 320.155 156.267 320.16 156.199C320.178 155.968 320.246 155.83 320.311 155.618C320.38 155.391 320.524 155.177 320.672 154.991C320.871 154.74 320.912 154.47 320.97 154.157C321.017 153.899 321.11 153.644 321.138 153.382C321.159 153.184 321.119 152.999 321.199 152.809" stroke="#7D757B" stroke-linecap="round"/>
<path d="M320.073 157.331C320.497 158.373 320.921 159.415 321.346 160.457C321.457 160.73 321.786 160.933 322.004 161.124" stroke="#7D757B" stroke-linecap="round"/>
<path d="M324.136 159.547C323.697 159.726 323.13 159.146 322.838 158.886C322.588 158.663 322.267 158.396 322.082 158.111C321.885 157.809 321.783 157.414 321.648 157.081C321.414 156.507 321.044 155.855 321.092 155.239" stroke="#7D757B" stroke-linecap="round"/>
<path d="M328.643 152.874C328.584 152.899 327.677 153.195 327.737 153.343C327.795 153.485 327.764 153.636 327.755 153.784C327.739 154.052 327.737 154.344 327.704 154.608C327.648 155.049 327.486 155.358 327.296 155.745C327.196 155.947 327.111 156.19 327.006 156.379C326.896 156.576 327.319 156.91 327.382 157.064" stroke="#7D757B" stroke-linecap="round"/>
<path d="M328.118 152.378C327.914 151.876 327.141 151.904 326.663 151.903C325.704 151.901 324.986 152.465 324.131 152.837C323.753 153.002 323.325 153.145 322.995 153.4C322.862 153.502 322.963 153.445 323.073 153.451C323.313 153.464 323.543 153.459 323.779 153.532C324.052 153.616 324.085 153.879 324.189 154.132C324.301 154.409 324.061 154.458 323.96 154.681C323.871 154.877 323.794 155.087 323.705 155.286C323.622 155.471 323.456 155.626 323.393 155.814C323.325 156.019 323.37 156.222 323.384 156.434" stroke="#7D757B" stroke-linecap="round"/>
<path d="M326.293 153.122C326.464 153.543 326.039 154.109 325.724 154.418C325.651 154.489 324.894 155.193 324.784 154.962C324.533 154.431 324.581 153.781 324.955 153.312C325.251 152.939 325.801 152.772 326.156 152.468" stroke="#7D757B" stroke-linecap="round"/>
<path d="M326.484 157.236C326.278 156.729 325.701 156.586 325.201 156.548C324.647 156.505 324.166 156.761 323.665 156.965" stroke="#7D757B" stroke-linecap="round"/>
<path d="M328.405 151.915C328.288 151.627 328.195 151.341 327.969 151.117C327.599 150.751 327.17 150.51 326.663 150.415C326.397 150.365 326.128 150.277 325.859 150.252C325.69 150.236 325.53 150.259 325.364 150.246" stroke="#7D757B" stroke-linecap="round"/>
<path d="M322.685 153.101C322.664 152.885 322.833 152.693 322.978 152.547C323.257 152.266 323.505 151.991 323.731 151.665C323.812 151.547 323.897 151.444 323.991 151.337C324.047 151.273 324.078 151.188 324.142 151.133" stroke="#7D757B" stroke-linecap="round"/>
<path d="M322.692 153.153L321.474 153.649" stroke="#7D757B" stroke-linecap="round"/>
<path d="M323.099 157.042L322.612 157.24" stroke="#7D757B" stroke-linecap="round"/>
<path d="M322.072 153.738C322.294 154.284 322.516 154.829 322.738 155.375C322.832 155.606 323.113 156.043 323.058 156.31" stroke="#7D757B" stroke-linecap="round"/>
<path d="M329.346 154.598C328.781 154.828 328.63 155.308 328.627 155.866C328.627 156.013 328.597 156.144 328.5 156.261C328.444 156.328 328.368 156.349 328.314 156.411" stroke="#7D757B" stroke-linecap="round"/>
<path d="M325.517 157.811C325.038 158.006 324.558 158.202 324.079 158.397C323.886 158.475 323.815 158.417 323.621 158.357C323.458 158.307 323.28 158.281 323.114 158.238C323.017 158.213 322.991 158.093 322.957 158.012" stroke="#7D757B" stroke-linecap="round"/>
<ellipse cx="7.5" cy="7" rx="7.5" ry="7" transform="matrix(-0.355998 -0.934487 -0.934487 0.355998 379.028 148.009)" fill="#FE9689"/>
<ellipse cx="5.5" cy="5" rx="5.5" ry="5" transform="matrix(-0.355998 -0.934487 -0.934487 0.355998 374.133 152.014)" fill="#FE9689"/>
<path d="M363.9 153.176C364.12 153.275 364.246 153.372 364.496 153.397C364.96 153.443 365.43 153.41 365.895 153.453C366.621 153.521 367.463 153.322 368.177 153.159C368.642 153.053 369.101 152.985 369.551 152.813C369.934 152.668 370.269 152.307 370.56 152.031C371.635 151.012 372.78 150.055 373.713 148.898C374.101 148.417 374.568 147.962 375.16 147.736C375.361 147.659 375.563 147.583 375.765 147.506C375.874 147.464 375.545 147.589 375.436 147.631C375.122 147.75 374.811 147.891 374.482 147.962C374.287 148.005 374.082 147.988 373.894 148.03C373.565 148.104 373.167 148.026 372.824 148.037C372.648 148.042 372.461 148.01 372.284 148C371.997 147.985 371.718 148.088 371.434 148.118C370.785 148.188 370.132 148.315 369.483 148.365C368.559 148.435 367.576 148.433 366.771 147.959C366.728 147.934 366.607 148.105 366.59 148.156C366.561 148.248 366.153 148.404 366.066 148.448C365.62 148.671 365.295 149.036 364.997 149.438C364.595 149.981 364.22 150.586 363.991 151.224C363.908 151.456 363.852 151.708 363.779 151.944C363.759 152.008 363.535 152.421 363.602 152.395" stroke="#7D757B" stroke-linecap="round"/>
<path d="M363.871 152.932C363.711 152.511 363.466 152.157 363.248 151.763C362.932 151.193 362.66 150.592 362.427 149.98C362.293 149.628 361.925 149.046 361.994 148.675C362.09 148.151 362.258 147.651 362.363 147.128C362.472 146.583 362.666 146.053 362.767 145.503C362.86 144.999 363.187 144.723 363.161 144.188C363.14 143.746 363.093 143.315 363.169 142.875C363.24 142.464 363.39 142.084 363.499 141.681C363.641 141.153 363.925 140.573 364.456 140.371" stroke="#7D757B" stroke-linecap="round"/>
<path d="M365.942 147.796C366.124 147.726 366.216 147.645 366.298 147.454C366.561 146.842 366.829 146.254 366.819 145.576C366.811 145.059 366.751 144.562 366.57 144.076C366.381 143.567 366.236 142.995 365.873 142.58C365.039 141.628 363.999 140.851 363.536 139.635" stroke="#7D757B" stroke-linecap="round"/>
<path d="M365.501 147.644C365.227 146.925 365.332 146.105 365.135 145.361C364.889 144.434 364.414 143.55 364.055 142.665C363.582 141.501 363.038 140.373 363.4 139.111" stroke="#7D757B" stroke-linecap="round"/>
<path d="M367.367 147.509C367.953 147.285 368.539 147.062 369.125 146.839C369.888 146.548 370.711 146.097 371.545 146.144C372.947 146.223 374.385 145.971 375.658 146.712C375.893 146.849 376.237 147.134 376.516 147.027C376.71 146.954 376.465 147.111 376.407 147.169C376.104 147.468 375.811 147.779 375.489 148.058C374.864 148.599 374.153 148.901 373.366 148.995" stroke="#7D757B" stroke-linecap="round"/>
<path d="M376.203 145.868C376.774 145.651 376.969 145.26 377.296 144.749C377.849 143.885 377.306 142.89 376.986 142.051C376.85 141.694 376.742 141.275 376.722 140.891C376.707 140.609 376.627 140.737 376.379 140.812C375.613 141.042 375.186 140 374.911 139.457C374.686 139.011 374.19 138.65 373.83 138.334C373.68 138.203 373.018 137.692 372.884 137.743C372.784 137.781 373.333 138.865 373.386 138.969C373.802 139.778 374.25 140.573 374.574 141.425C374.81 142.043 375.125 142.677 375.263 143.325C375.39 143.922 375.582 144.528 375.592 145.142C375.596 145.381 375.518 145.748 375.602 145.969" stroke="#7D757B" stroke-linecap="round"/>
<path d="M372.755 137.657C372.535 137.079 372.367 136.335 371.636 136.229C371.184 136.164 370.63 136.238 370.203 136.122C369.93 136.048 369.606 136.146 369.329 136.085C369.174 136.051 368.596 135.53 368.529 135.57C368.415 135.639 368.062 136.568 368.19 136.74C368.215 136.773 368.652 136.79 368.72 136.797C368.95 136.82 369.087 136.891 369.297 136.961C369.522 137.035 369.733 137.183 369.916 137.336C370.163 137.541 370.431 137.588 370.743 137.653C371 137.706 371.253 137.805 371.514 137.839C371.711 137.864 371.897 137.828 372.085 137.912" stroke="#7D757B" stroke-linecap="round"/>
<path d="M367.59 136.684C366.539 137.085 365.487 137.485 364.436 137.886C364.16 137.991 363.95 138.315 363.754 138.529" stroke="#7D757B" stroke-linecap="round"/>
<path d="M365.282 140.695C365.114 140.253 365.706 139.699 365.973 139.413C366.201 139.168 366.476 138.853 366.764 138.675C367.071 138.485 367.469 138.392 367.805 138.264C368.383 138.044 369.043 137.689 369.658 137.75" stroke="#7D757B" stroke-linecap="round"/>
<path d="M371.851 145.353C371.828 145.294 371.553 144.38 371.403 144.437C371.26 144.491 371.11 144.458 370.962 144.445C370.694 144.422 370.402 144.414 370.14 144.375C369.7 144.309 369.395 144.141 369.012 143.941C368.812 143.837 368.571 143.747 368.385 143.637C368.19 143.522 367.847 143.938 367.691 143.997" stroke="#7D757B" stroke-linecap="round"/>
<path d="M372.359 144.84C372.866 144.647 372.856 143.873 372.867 143.396C372.891 142.437 372.343 141.706 371.99 140.843C371.835 140.461 371.701 140.03 371.453 139.694C371.354 139.559 371.41 139.661 371.401 139.771C371.382 140.011 371.382 140.241 371.304 140.476C371.213 140.747 370.95 140.774 370.694 140.871C370.415 140.978 370.372 140.736 370.152 140.63C369.957 140.537 369.749 140.455 369.552 140.362C369.369 140.275 369.218 140.105 369.031 140.038C368.828 139.965 368.624 140.006 368.411 140.015" stroke="#7D757B" stroke-linecap="round"/>
<path d="M371.657 142.998C371.232 143.159 370.676 142.722 370.374 142.399C370.305 142.325 369.619 141.552 369.852 141.448C370.389 141.209 371.037 141.272 371.497 141.656C371.863 141.96 372.018 142.514 372.314 142.875" stroke="#7D757B" stroke-linecap="round"/>
<path d="M367.539 143.096C368.051 142.901 368.207 142.328 368.257 141.828C368.312 141.276 368.067 140.789 367.874 140.283" stroke="#7D757B" stroke-linecap="round"/>
<path d="M372.816 145.136C373.106 145.026 373.394 144.94 373.623 144.719C373.998 144.358 374.249 143.934 374.355 143.43C374.411 143.165 374.505 142.898 374.536 142.629C374.556 142.461 374.537 142.3 374.553 142.134" stroke="#7D757B" stroke-linecap="round"/>
<path d="M371.759 139.391C371.977 139.375 372.165 139.549 372.307 139.697C372.581 139.982 372.851 140.236 373.172 140.47C373.288 140.554 373.389 140.641 373.494 140.737C373.556 140.795 373.641 140.827 373.694 140.892" stroke="#7D757B" stroke-linecap="round"/>
<path d="M371.708 139.397L371.24 138.169" stroke="#7D757B" stroke-linecap="round"/>
<path d="M367.811 139.716L367.624 139.225" stroke="#7D757B" stroke-linecap="round"/>
<path d="M371.136 138.764C370.586 138.974 370.035 139.183 369.485 139.393C369.252 139.482 368.809 139.752 368.543 139.692" stroke="#7D757B" stroke-linecap="round"/>
<path d="M370.113 146.017C369.895 145.447 369.418 145.284 368.861 145.27C368.714 145.266 368.584 145.233 368.468 145.133C368.403 145.076 368.384 145 368.323 144.944" stroke="#7D757B" stroke-linecap="round"/>
<path d="M366.987 142.116C366.802 141.632 366.618 141.148 366.434 140.664C366.36 140.471 366.419 140.4 366.483 140.208C366.537 140.046 366.568 139.869 366.614 139.704C366.641 139.608 366.762 139.584 366.844 139.552" stroke="#7D757B" stroke-linecap="round"/>
<path d="M340.779 158.464C341.795 162.259 347.273 164.497 347.273 164.497C347.273 164.497 351.365 159.682 350.042 156.059C348.788 152.626 342.884 148.879 342.884 148.879C342.884 148.879 339.784 154.745 340.779 158.464Z" fill="#FE9689"/>
<path d="M347.273 164.497L342.884 148.879M347.273 164.497C347.273 164.497 341.795 162.259 340.779 158.464C339.784 154.745 342.884 148.879 342.884 148.879M347.273 164.497C347.273 164.497 351.365 159.682 350.042 156.059C348.788 152.626 342.884 148.879 342.884 148.879" stroke="#7D757B"/>
<path d="M362.634 168.337C358.774 169.067 354.382 165.1 354.382 165.1C354.382 165.1 356.948 159.325 360.787 158.947C364.424 158.589 370.359 162.286 370.359 162.286C370.359 162.286 366.417 167.622 362.634 168.337Z" fill="#FE9689"/>
<path d="M354.382 165.1L370.359 162.286M354.382 165.1C354.382 165.1 358.774 169.067 362.634 168.337C366.417 167.622 370.359 162.286 370.359 162.286M354.382 165.1C354.382 165.1 356.948 159.325 360.787 158.947C364.424 158.589 370.359 162.286 370.359 162.286" stroke="#7D757B"/>
<path d="M364.12 152.064C364.12 152.064 354.801 157.704 351.656 172.132C345.909 160.283 336.454 160.082 336.454 160.082" stroke="#7D757B" stroke-width="2"/>
<rect x="89.7542" y="235.509" width="37" height="15" rx="7.5" fill="#7D757B"/>
<mask id="path-168-inside-2_197_2094" fill="white">
<rect x="43.7542" y="118.509" width="127" height="122" rx="8"/>
</mask>
<rect x="43.7542" y="118.509" width="127" height="122" rx="8" fill="white" stroke="#B6A9C0" stroke-width="20" mask="url(#path-168-inside-2_197_2094)"/>
<rect width="17.2215" height="17.1141" rx="1" transform="matrix(0.866025 0.5 0 1 93.8398 199.248)" fill="#7D757B"/>
<rect x="0.433013" y="0.25" width="15.4584" height="16.5071" rx="0.5" transform="matrix(0.866025 -0.5 0 1 107.812 207.694)" fill="#B6A9C0" stroke="#7D757B"/>
<path d="M106.798 192.508C107.002 192.383 107.325 192.363 107.568 192.45L107.667 192.494L120.917 199.762C121.167 199.9 121.171 200.13 120.925 200.27L108.67 207.274C108.434 207.408 108.056 207.41 107.817 207.278L95.0554 200.237C94.8124 200.103 94.8015 199.881 95.0317 199.739L106.798 192.508Z" fill="#FFD8BA" stroke="#7D757B"/>
<path d="M100.242 170.398C100.242 170.398 107.242 176.009 107.242 201.398C107.242 176.009 114.754 158.009 114.754 158.009" stroke="#7D757B" stroke-width="2"/>
<path d="M122.254 184.509C117.261 186.985 110.54 185.057 110.54 185.057C110.54 185.057 112.713 178.176 117.754 176.057C122.531 174.049 131.254 175.009 131.254 175.009C131.254 175.009 127.148 182.081 122.254 184.509Z" fill="#FE9689"/>
<path d="M110.54 185.057L131.254 175.009M110.54 185.057C110.54 185.057 117.261 186.985 122.254 184.509C127.148 182.081 131.254 175.009 131.254 175.009M110.54 185.057C110.54 185.057 112.713 178.176 117.754 176.057C122.531 174.049 131.254 175.009 131.254 175.009" stroke="#7D757B"/>
<path d="M92.781 188.383C97.7743 190.859 104.495 188.931 104.495 188.931C104.495 188.931 102.322 182.05 97.281 179.931C92.504 177.923 83.781 178.883 83.781 178.883C83.781 178.883 87.8867 185.956 92.781 188.383Z" fill="#FE9689"/>
<path d="M104.495 188.931L83.781 178.883M104.495 188.931C104.495 188.931 97.7743 190.859 92.781 188.383C87.8867 185.956 83.781 178.883 83.781 178.883M104.495 188.931C104.495 188.931 102.322 182.05 97.281 179.931C92.504 177.923 83.781 178.883 83.781 178.883" stroke="#7D757B"/>
<mask id="path-177-inside-3_197_2094" fill="white">
<path d="M132.52 149.029L127.12 155.21C127.048 155.322 126.975 155.435 126.897 155.546C123.914 159.804 118.197 160.944 114.126 158.093C110.055 155.241 109.172 149.477 112.155 145.219C112.584 144.606 113.071 144.06 113.6 143.579L119.09 137.296L132.52 149.029Z"/>
</mask>
<path d="M132.52 149.029L127.12 155.21C127.048 155.322 126.975 155.435 126.897 155.546C123.914 159.804 118.197 160.944 114.126 158.093C110.055 155.241 109.172 149.477 112.155 145.219C112.584 144.606 113.071 144.06 113.6 143.579L119.09 137.296L132.52 149.029Z" fill="#FE9689"/>
<path d="M132.52 149.029L133.273 149.687L133.931 148.934L133.178 148.276L132.52 149.029ZM127.12 155.21L126.367 154.552L126.318 154.607L126.278 154.67L127.12 155.21ZM126.897 155.546L127.716 156.12L127.716 156.12L126.897 155.546ZM114.126 158.093L113.552 158.912L113.552 158.912L114.126 158.093ZM112.155 145.219L111.336 144.645L111.336 144.645L112.155 145.219ZM113.6 143.579L114.273 144.319L114.316 144.28L114.353 144.237L113.6 143.579ZM119.09 137.296L119.748 136.543L118.994 135.885L118.337 136.638L119.09 137.296ZM132.52 149.029L131.767 148.371L126.367 154.552L127.12 155.21L127.873 155.868L133.273 149.687L132.52 149.029ZM127.12 155.21L126.278 154.67C126.206 154.782 126.143 154.88 126.078 154.972L126.897 155.546L127.716 156.12C127.807 155.991 127.889 155.862 127.961 155.75L127.12 155.21ZM126.897 155.546L126.078 154.972C123.388 158.813 118.284 159.784 114.699 157.274L114.126 158.093L113.552 158.912C118.11 162.104 124.441 160.795 127.716 156.12L126.897 155.546ZM114.126 158.093L114.7 157.274C111.115 154.763 110.284 149.633 112.974 145.792L112.155 145.219L111.336 144.645C108.061 149.32 108.994 155.719 113.552 158.912L114.126 158.093ZM112.155 145.219L112.974 145.792C113.359 145.243 113.797 144.752 114.273 144.319L113.6 143.579L112.928 142.839C112.346 143.368 111.809 143.97 111.336 144.645L112.155 145.219ZM113.6 143.579L114.353 144.237L119.843 137.954L119.09 137.296L118.337 136.638L112.847 142.921L113.6 143.579ZM119.09 137.296L118.432 138.049L131.862 149.782L132.52 149.029L133.178 148.276L119.748 136.543L119.09 137.296Z" fill="#7D757B" mask="url(#path-177-inside-3_197_2094)"/>
<path d="M128.002 140.082C129.988 141.473 131.483 143.122 132.306 144.641C133.144 146.19 133.215 147.456 132.669 148.235C132.123 149.014 130.91 149.379 129.168 149.121C127.459 148.867 125.398 148.025 123.412 146.634C121.427 145.243 119.932 143.594 119.109 142.074C118.271 140.525 118.2 139.26 118.745 138.481C119.291 137.702 120.505 137.337 122.247 137.595C123.956 137.849 126.016 138.691 128.002 140.082Z" fill="#FFD8BA" stroke="#7D757B"/>
<mask id="path-180-inside-4_197_2094" fill="white">
<path d="M82.8945 162.029L88.2949 168.21C88.3671 168.322 88.4401 168.435 88.5175 168.546C91.5003 172.804 97.218 173.944 101.289 171.093C105.36 168.241 106.243 162.477 103.26 158.219C102.831 157.606 102.344 157.06 101.814 156.579L96.3251 150.296L82.8945 162.029Z"/>
</mask>
<path d="M82.8945 162.029L88.2949 168.21C88.3671 168.322 88.4401 168.435 88.5175 168.546C91.5003 172.804 97.218 173.944 101.289 171.093C105.36 168.241 106.243 162.477 103.26 158.219C102.831 157.606 102.344 157.06 101.814 156.579L96.3251 150.296L82.8945 162.029Z" fill="#FE9689"/>
<path d="M82.8945 162.029L82.1414 162.687L81.4834 161.934L82.2366 161.276L82.8945 162.029ZM88.2949 168.21L89.0479 167.552L89.0965 167.607L89.1363 167.67L88.2949 168.21ZM88.5175 168.546L87.6985 169.12L87.6985 169.12L88.5175 168.546ZM101.289 171.093L101.863 171.912L101.863 171.912L101.289 171.093ZM103.26 158.219L104.079 157.645L104.079 157.645L103.26 158.219ZM101.814 156.579L101.142 157.319L101.099 157.28L101.061 157.237L101.814 156.579ZM96.3251 150.296L95.6672 149.543L96.4203 148.885L97.0782 149.638L96.3251 150.296ZM82.8945 162.029L83.6475 161.371L89.0479 167.552L88.2949 168.21L87.5418 168.868L82.1414 162.687L82.8945 162.029ZM88.2949 168.21L89.1363 167.67C89.2087 167.782 89.272 167.88 89.3366 167.972L88.5175 168.546L87.6985 169.12C87.6082 168.991 87.5255 168.862 87.4534 168.75L88.2949 168.21ZM88.5175 168.546L89.3366 167.972C92.0271 171.813 97.1309 172.784 100.715 170.274L101.289 171.093L101.863 171.912C97.305 175.104 90.9736 173.795 87.6985 169.12L88.5175 168.546ZM101.289 171.093L100.715 170.274C104.3 167.763 105.131 162.633 102.441 158.792L103.26 158.219L104.079 157.645C107.354 162.32 106.42 168.719 101.863 171.912L101.289 171.093ZM103.26 158.219L102.441 158.792C102.056 158.243 101.618 157.752 101.142 157.319L101.814 156.579L102.487 155.839C103.069 156.368 103.606 156.97 104.079 157.645L103.26 158.219ZM101.814 156.579L101.061 157.237L95.5721 150.954L96.3251 150.296L97.0782 149.638L102.567 155.921L101.814 156.579ZM96.3251 150.296L96.9831 151.049L83.5524 162.782L82.8945 162.029L82.2366 161.276L95.6672 149.543L96.3251 150.296Z" fill="#7D757B" mask="url(#path-180-inside-4_197_2094)"/>
<path d="M87.4126 153.082C85.4268 154.473 83.9318 156.122 83.1092 157.641C82.271 159.19 82.1999 160.456 82.7456 161.235C83.2913 162.014 84.5047 162.379 86.2468 162.121C87.9562 161.867 90.0166 161.025 92.0024 159.634C93.9882 158.243 95.4832 156.594 96.3057 155.074C97.144 153.525 97.2151 152.26 96.6693 151.481C96.1236 150.702 94.9103 150.337 93.1681 150.595C91.4588 150.849 89.3983 151.691 87.4126 153.082Z" fill="#FFD8BA" stroke="#7D757B"/>
<mask id="path-183-inside-5_197_2094" fill="white">
<rect x="43.7542" y="118.509" width="127" height="123" rx="4"/>
</mask>
<rect x="43.7542" y="118.509" width="127" height="123" rx="4" stroke="#7D757B" stroke-width="10" mask="url(#path-183-inside-5_197_2094)"/>
<line x1="120.254" y1="267.509" x2="120.254" y2="282.509" stroke="white"/>
<line x1="299.254" y1="268.509" x2="299.254" y2="282.509" stroke="white"/>
<line x1="10.2542" y1="268.509" x2="10.2542" y2="282.509" stroke="white"/>
<line x1="397.254" y1="268.509" x2="397.254" y2="282.509" stroke="white"/>
<path d="M125.254 282.509C129.254 308.009 150.754 334.009 179.754 306.009" stroke="white" stroke-width="2"/>
<mask id="path-189-inside-6_197_2094" fill="white">
<path fill-rule="evenodd" clip-rule="evenodd" d="M313.558 296.929C312.526 293.705 309.505 291.371 305.938 291.371H192.65C190.191 291.371 187.868 292.502 186.352 294.437L180.784 301.545C176.585 306.906 180.577 314.728 187.382 314.473L294.981 310.434L296.028 364.63C296.153 371.081 303.469 374.773 308.703 371.026L311.095 369.314C313.182 367.82 314.418 365.411 314.418 362.839L314.418 300.545C314.418 299.245 314.108 298.017 313.558 296.929Z"/>
</mask>
<path fill-rule="evenodd" clip-rule="evenodd" d="M313.558 296.929C312.526 293.705 309.505 291.371 305.938 291.371H192.65C190.191 291.371 187.868 292.502 186.352 294.437L180.784 301.545C176.585 306.906 180.577 314.728 187.382 314.473L294.981 310.434L296.028 364.63C296.153 371.081 303.469 374.773 308.703 371.026L311.095 369.314C313.182 367.82 314.418 365.411 314.418 362.839L314.418 300.545C314.418 299.245 314.108 298.017 313.558 296.929Z" fill="#7D757B"/>
<path d="M313.558 296.929L311.654 297.539L311.702 297.69L311.773 297.831L313.558 296.929ZM186.352 294.437L184.777 293.204L184.777 293.204L186.352 294.437ZM180.784 301.545L182.359 302.778L182.359 302.778L180.784 301.545ZM187.382 314.473L187.307 312.474L187.382 314.473ZM294.981 310.434L296.981 310.395L296.942 308.359L294.906 308.435L294.981 310.434ZM296.028 364.63L294.029 364.669L296.028 364.63ZM308.703 371.026L307.539 369.4L308.703 371.026ZM311.095 369.314L312.259 370.94L311.095 369.314ZM314.418 362.839H316.418H314.418ZM314.418 300.545H312.418V300.545L314.418 300.545ZM315.463 296.319C314.173 292.291 310.399 289.371 305.938 289.371V293.371C308.61 293.371 310.879 295.119 311.654 297.539L315.463 296.319ZM305.938 289.371H192.65V293.371H305.938V289.371ZM192.65 289.371C189.576 289.371 186.673 290.784 184.777 293.204L187.926 295.671C189.064 294.219 190.805 293.371 192.65 293.371V289.371ZM184.777 293.204L179.21 300.312L182.359 302.778L187.926 295.671L184.777 293.204ZM179.21 300.312C173.961 307.013 178.951 316.791 187.457 316.471L187.307 312.474C182.204 312.666 179.209 306.799 182.359 302.778L179.21 300.312ZM187.457 316.471L295.056 312.432L294.906 308.435L187.307 312.474L187.457 316.471ZM292.982 310.472L294.029 364.669L298.028 364.592L296.981 310.395L292.982 310.472ZM294.029 364.669C294.184 372.717 303.313 377.344 309.867 372.653L307.539 369.4C303.624 372.202 298.122 369.446 298.028 364.592L294.029 364.669ZM309.867 372.653L312.259 370.94L309.931 367.688L307.539 369.4L309.867 372.653ZM312.259 370.94C314.872 369.07 316.418 366.054 316.418 362.839H312.418C312.418 364.767 311.491 366.57 309.931 367.688L312.259 370.94ZM316.418 362.839L316.418 300.545L312.418 300.545L312.418 362.839H316.418ZM316.418 300.545C316.418 298.924 316.031 297.387 315.343 296.027L311.773 297.831C312.186 298.646 312.418 299.567 312.418 300.545H316.418Z" fill="white" mask="url(#path-189-inside-6_197_2094)"/>
<rect x="-1" y="1" width="127.448" height="72.4849" rx="7" transform="matrix(-1 0 0 1 306.203 300.007)" fill="#B6A9C0" stroke="white" stroke-width="2"/>
<rect x="-0.5" y="0.5" width="97" height="54" rx="7.5" transform="matrix(-1 0 0 1 298.754 309.509)" fill="#FE9689" stroke="white"/>
<rect x="260.754" y="351.509" width="5" height="5" fill="#FE9689"/>
<rect x="239.254" y="318.009" width="50" height="46" fill="#FFD8BA" stroke="white"/>
<rect x="270.254" y="330.827" width="3" height="3.27273" fill="#FFD8BA" stroke="white"/>
<rect x="242.254" y="338.304" width="4" height="1.13636" fill="#FE9689" stroke="white"/>
<rect x="242.254" y="344.713" width="4" height="1.13636" fill="#FE9689" stroke="white"/>
<rect x="242.254" y="341.509" width="4" height="1.13636" fill="#FE9689" stroke="white"/>
<rect x="257.254" y="338.304" width="4" height="1.13636" fill="#FE9689" stroke="white"/>
<rect x="257.254" y="344.713" width="4" height="1.13636" fill="#FE9689" stroke="white"/>
<rect x="257.254" y="341.509" width="4" height="1.13636" fill="#FE9689" stroke="white"/>
<rect x="248.254" y="336.236" width="4.34091" height="1" transform="rotate(-90 248.254 336.236)" fill="#FE9689" stroke="white"/>
<rect x="254.254" y="336.236" width="4.34091" height="1" transform="rotate(-90 254.254 336.236)" fill="#FE9689" stroke="white"/>
<rect x="251.254" y="336.236" width="4.34091" height="1" transform="rotate(-90 251.254 336.236)" fill="#FE9689" stroke="white"/>
<rect x="248.254" y="351.19" width="4.34091" height="1" transform="rotate(-90 248.254 351.19)" fill="#FE9689" stroke="white"/>
<rect x="254.254" y="351.19" width="4.34091" height="1" transform="rotate(-90 254.254 351.19)" fill="#FE9689" stroke="white"/>
<rect x="251.254" y="351.19" width="4.34091" height="1" transform="rotate(-90 251.254 351.19)" fill="#FE9689" stroke="white"/>
<rect x="278.254" y="339.372" width="7" height="1.13636" fill="#FE9689" stroke="white"/>
<rect x="278.254" y="335.1" width="7" height="1.13636" fill="#FE9689" stroke="white"/>
<rect x="278.254" y="330.827" width="7" height="1.13636" fill="#FE9689" stroke="white"/>
<rect x="278.254" y="326.554" width="7" height="1.13636" fill="#FE9689" stroke="white"/>
<rect x="278.254" y="322.281" width="7" height="1.13636" fill="#FE9689" stroke="white"/>
<rect x="266.754" y="345.213" width="18" height="5.47727" stroke="white" stroke-width="2"/>
<rect x="264.754" y="321.713" width="9.75" height="4" transform="rotate(90 264.754 321.713)" stroke="white" stroke-width="2"/>
<rect x="251.754" y="326.122" width="9" height="4.40909" transform="rotate(-180 251.754 326.122)" stroke="white" stroke-width="2"/>
<rect x="266.754" y="353.759" width="18" height="5.47727" stroke="white" stroke-width="2"/>
<rect x="246.754" y="336.668" width="10" height="9.75" stroke="white" stroke-width="2"/>
<path d="M271.754 338.304C272 338.304 272.254 338.527 272.254 338.872C272.254 339.218 272 339.441 271.754 339.441C271.509 339.441 271.254 339.218 271.254 338.872C271.254 338.527 271.509 338.304 271.754 338.304Z" fill="#FE9689" stroke="white"/>
<path d="M244.754 356.463C245 356.463 245.254 356.686 245.254 357.032C245.254 357.377 245 357.6 244.754 357.6C244.509 357.6 244.254 357.377 244.254 357.032C244.254 356.686 244.509 356.463 244.754 356.463Z" fill="#FE9689" stroke="white"/>
<path d="M249.754 356.463C250 356.463 250.254 356.686 250.254 357.032C250.254 357.377 250 357.6 249.754 357.6C249.509 357.6 249.254 357.377 249.254 357.032C249.254 356.686 249.509 356.463 249.754 356.463Z" fill="#FE9689" stroke="white"/>
<path d="M254.754 356.463C255 356.463 255.254 356.686 255.254 357.031C255.254 357.377 255 357.6 254.754 357.6C254.509 357.6 254.254 357.377 254.254 357.031C254.254 356.686 254.509 356.463 254.754 356.463Z" fill="#FE9689" stroke="white"/>
<path d="M259.754 356.463C260 356.463 260.254 356.686 260.254 357.032C260.254 357.377 260 357.6 259.754 357.6C259.509 357.6 259.254 357.377 259.254 357.032C259.254 356.686 259.509 356.463 259.754 356.463Z" fill="#FE9689" stroke="white"/>
<path d="M271.754 324.418C272 324.418 272.254 324.641 272.254 324.986C272.254 325.331 272 325.554 271.754 325.554C271.509 325.554 271.254 325.331 271.254 324.986C271.254 324.641 271.509 324.418 271.754 324.418Z" fill="#FE9689" stroke="white"/>
<path d="M224.149 331.462C225.958 333.542 226.359 335.366 225.07 337.602" stroke="white" stroke-linecap="round" stroke-linejoin="round"/>
<path d="M214.103 332.929C216.222 333.444 218.066 333.018 219.684 331.462" stroke="white" stroke-linecap="round" stroke-linejoin="round"/>
<path d="M218.688 320.857C217.47 323.062 217.948 324.904 219.684 326.997" stroke="white" stroke-linecap="round" stroke-linejoin="round"/>
<path d="M214.103 325.881C214.879 327.682 215.727 328.666 217.744 329.16C218.007 329.224 218.293 329.208 218.568 329.229" stroke="white" stroke-linecap="round" stroke-linejoin="round"/>
<path d="M221.917 332.578C221.847 334.639 220.483 335.984 218.568 337.043" stroke="white" stroke-linecap="round" stroke-linejoin="round"/>
<path d="M221.917 325.881C221.996 324.788 222.358 323.824 223.04 322.965C223.734 322.092 224.252 321.786 225.266 321.415" stroke="white" stroke-linecap="round" stroke-linejoin="round"/>
<path d="M225.266 329.238C227.296 329.109 228.951 330.396 229.731 332.578" stroke="white" stroke-linecap="round" stroke-linejoin="round"/>
<path d="M233.638 338.16C235.111 338.169 237.545 337.043 237.824 335.369" stroke="white" stroke-linecap="round" stroke-linejoin="round"/>
<path d="M233.638 335.927C235.111 335.936 235.87 335.648 236.987 334.532" stroke="white" stroke-linecap="round" stroke-linejoin="round"/>
<path d="M233.638 320.02C235.111 320.011 237.545 321.136 237.824 322.811" stroke="white" stroke-linecap="round" stroke-linejoin="round"/>
<path d="M233.638 322.253C235.111 322.244 235.87 322.532 236.987 323.648" stroke="white" stroke-linecap="round" stroke-linejoin="round"/>
<path d="M224.149 326.997C225.658 325.712 227.774 325.602 229.731 326.332" stroke="white" stroke-linecap="round" stroke-linejoin="round"/>
<path d="M236.987 330.346C237.731 330.346 238.478 330.346 239.219 330.346" stroke="white" stroke-linecap="round" stroke-linejoin="round"/>
<path d="M236.987 328.113C237.731 328.113 238.475 328.113 239.219 328.113" stroke="white" stroke-linecap="round" stroke-linejoin="round"/>
<circle cx="222.254" cy="329.009" r="8.5" transform="rotate(-90 222.254 329.009)" stroke="white" stroke-width="2"/>
<circle cx="221.917" cy="329.229" r="2.34884" transform="rotate(-90 221.917 329.229)" stroke="white" stroke-width="2"/>
<rect x="211.254" y="364.009" width="46" height="22" rx="3.5" transform="rotate(-90 211.254 364.009)" stroke="white"/>
<rect x="236.928" y="334.869" width="11.2791" height="2.34884" rx="1.17442" transform="rotate(-90 236.928 334.869)" stroke="white"/>
<path d="M224.149 354.462C225.958 356.542 226.359 358.366 225.07 360.602" stroke="white" stroke-linecap="round" stroke-linejoin="round"/>
<path d="M214.103 355.929C216.222 356.444 218.066 356.018 219.684 354.462" stroke="white" stroke-linecap="round" stroke-linejoin="round"/>
<path d="M218.688 343.857C217.47 346.062 217.948 347.904 219.684 349.997" stroke="white" stroke-linecap="round" stroke-linejoin="round"/>
<path d="M214.103 348.881C214.879 350.682 215.727 351.666 217.744 352.16C218.007 352.224 218.293 352.208 218.568 352.229" stroke="white" stroke-linecap="round" stroke-linejoin="round"/>
<path d="M221.917 355.578C221.847 357.639 220.483 358.984 218.568 360.043" stroke="white" stroke-linecap="round" stroke-linejoin="round"/>
<path d="M221.917 348.881C221.996 347.788 222.358 346.824 223.04 345.965C223.734 345.092 224.252 344.786 225.266 344.415" stroke="white" stroke-linecap="round" stroke-linejoin="round"/>
<path d="M225.266 352.238C227.296 352.109 228.951 353.396 229.731 355.578" stroke="white" stroke-linecap="round" stroke-linejoin="round"/>
<path d="M233.638 361.16C235.111 361.169 237.545 360.043 237.824 358.369" stroke="white" stroke-linecap="round" stroke-linejoin="round"/>
<path d="M233.638 358.927C235.111 358.936 235.87 358.648 236.987 357.532" stroke="white" stroke-linecap="round" stroke-linejoin="round"/>
<path d="M233.638 343.02C235.111 343.011 237.545 344.136 237.824 345.811" stroke="white" stroke-linecap="round" stroke-linejoin="round"/>
<path d="M233.638 345.253C235.111 345.244 235.87 345.532 236.987 346.648" stroke="white" stroke-linecap="round" stroke-linejoin="round"/>
<path d="M224.149 349.997C225.658 348.712 227.774 348.602 229.731 349.332" stroke="white" stroke-linecap="round" stroke-linejoin="round"/>
<path d="M236.987 353.346C237.731 353.346 238.478 353.346 239.219 353.346" stroke="white" stroke-linecap="round" stroke-linejoin="round"/>
<path d="M236.987 351.113C237.731 351.113 238.475 351.113 239.219 351.113" stroke="white" stroke-linecap="round" stroke-linejoin="round"/>
<circle cx="222.254" cy="352.009" r="8.5" transform="rotate(-90 222.254 352.009)" stroke="white" stroke-width="2"/>
<circle cx="221.917" cy="352.23" r="2.34884" transform="rotate(-90 221.917 352.23)" stroke="white" stroke-width="2"/>
<rect x="236.928" y="357.869" width="11.2791" height="2.34884" rx="1.17442" transform="rotate(-90 236.928 357.869)" stroke="white"/>
</svg>
