<svg width="340" height="340" viewBox="0 0 340 340" fill="none" xmlns="http://www.w3.org/2000/svg">
<rect width="340" height="340" rx="8" fill="#7D757B"/>
<path d="M80.9 187.615L67.705 173.25L80.9 158.885H94.875L81.615 173.25L94.875 187.615H80.9ZM130.286 196L114.946 175.85V196H103.831V150.37H114.946V170.39L130.156 150.37H143.221L125.541 172.73L143.871 196H130.286ZM171.703 139L155.623 207.22H145.723L161.803 139H171.703ZM239.131 150.37L227.236 196H213.781L206.501 165.97L198.961 196H185.506L173.936 150.37H185.831L192.396 183.585L200.521 150.37H212.741L220.541 183.585L227.171 150.37H239.131ZM244.77 158.885H258.745L271.94 173.25L258.745 187.615H244.77L258.03 173.25L244.77 158.885Z" fill="white"/>
</svg>
