<svg width="277" height="277" viewBox="0 0 277 277" fill="none" xmlns="http://www.w3.org/2000/svg">
<circle cx="138.236" cy="138.236" r="138.236" fill="#FE9689" fill-opacity="0.2"/>
<mask id="path-2-inside-1_288_874" fill="white">
<path d="M154.923 112.568C154.923 115.485 157.287 117.849 160.204 117.849H207.786C212.205 117.849 215.786 121.431 215.786 125.849V213C215.786 217.418 212.205 221 207.786 221H60.7438C56.9406 221 53.6632 218.322 52.9045 214.595L35.1636 127.445C34.1543 122.487 37.9432 117.849 43.0028 117.849H49.237C52.1535 117.849 54.5178 115.485 54.5178 112.568V112.568C54.5178 109.652 56.8821 107.288 59.7986 107.288H149.642C152.559 107.288 154.923 109.652 154.923 112.568V112.568Z"/>
</mask>
<path d="M154.923 112.568C154.923 115.485 157.287 117.849 160.204 117.849H207.786C212.205 117.849 215.786 121.431 215.786 125.849V213C215.786 217.418 212.205 221 207.786 221H60.7438C56.9406 221 53.6632 218.322 52.9045 214.595L35.1636 127.445C34.1543 122.487 37.9432 117.849 43.0028 117.849H49.237C52.1535 117.849 54.5178 115.485 54.5178 112.568V112.568C54.5178 109.652 56.8821 107.288 59.7986 107.288H149.642C152.559 107.288 154.923 109.652 154.923 112.568V112.568Z" fill="#3C383B" fill-opacity="0.69"/>
<path d="M160.204 117.849V121.849H207.786V117.849V113.849H160.204V117.849ZM215.786 125.849H211.786V213H215.786H219.786V125.849H215.786ZM207.786 221V217H60.7438V221V225H207.786V221ZM52.9045 214.595L56.8242 213.797L39.0832 126.647L35.1636 127.445L31.244 128.243L48.9849 215.393L52.9045 214.595ZM43.0028 117.849V121.849H49.237V117.849V113.849H43.0028V117.849ZM59.7986 107.288V111.288H149.642V107.288V103.288H59.7986V107.288ZM149.642 107.288V111.288C150.35 111.288 150.923 111.861 150.923 112.568H154.923H158.923C158.923 107.443 154.768 103.288 149.642 103.288V107.288ZM54.5178 112.568H58.5178C58.5178 111.861 59.0912 111.288 59.7986 111.288V107.288V103.288C54.6729 103.288 50.5178 107.443 50.5178 112.568H54.5178ZM49.237 117.849V121.849C54.3627 121.849 58.5178 117.694 58.5178 112.568H54.5178H50.5178C50.5178 113.276 49.9444 113.849 49.237 113.849V117.849ZM35.1636 127.445L39.0832 126.647C38.5786 124.168 40.473 121.849 43.0028 121.849V117.849V113.849C35.4134 113.849 29.7301 120.806 31.244 128.243L35.1636 127.445ZM60.7438 221V217C58.8422 217 57.2035 215.661 56.8242 213.797L52.9045 214.595L48.9849 215.393C50.1229 220.983 55.0391 225 60.7438 225V221ZM215.786 213H211.786C211.786 215.209 209.995 217 207.786 217V221V225C214.414 225 219.786 219.627 219.786 213H215.786ZM207.786 117.849V121.849C209.995 121.849 211.786 123.64 211.786 125.849H215.786H219.786C219.786 119.222 214.414 113.849 207.786 113.849V117.849ZM160.204 117.849V113.849C159.496 113.849 158.923 113.276 158.923 112.568H154.923H150.923C150.923 117.694 155.078 121.849 160.204 121.849V117.849Z" fill="white" mask="url(#path-2-inside-1_288_874)"/>
<rect x="60.4453" y="95.7654" width="67.0816" height="98.1587" rx="2" transform="rotate(-9.54459 60.4453 95.7654)" fill="#FFD8BA" stroke="white" stroke-width="4"/>
<rect x="-2.51246" y="1.29905" width="71.1439" height="96.5879" rx="2" transform="matrix(-0.952878 -0.303353 -0.303353 0.952878 232.077 103.841)" fill="#FFD8BA" stroke="white" stroke-width="4"/>
<rect x="94.802" y="45" width="101.461" height="119.519" rx="2" fill="#FE9689" stroke="white" stroke-width="4"/>
<mask id="path-7-inside-2_288_874" fill="white">
<path d="M182.028 135.82C180.022 140.422 183.395 145.571 188.415 145.571H229.168C234.682 145.571 238.543 151.018 236.717 156.221L215.967 215.344C214.842 218.549 211.815 220.694 208.418 220.694H60.4755C54.9185 220.694 51.0543 215.168 52.9613 209.949L76.4453 145.676C76.4682 145.613 76.5277 145.571 76.5944 145.571V145.571C76.6614 145.571 76.7211 145.529 76.7438 145.466L81.8055 131.366C82.9462 128.188 85.9589 126.068 89.3351 126.068H175.642C180.662 126.068 184.035 131.218 182.028 135.82V135.82Z"/>
</mask>
<path d="M182.028 135.82C180.022 140.422 183.395 145.571 188.415 145.571H229.168C234.682 145.571 238.543 151.018 236.717 156.221L215.967 215.344C214.842 218.549 211.815 220.694 208.418 220.694H60.4755C54.9185 220.694 51.0543 215.168 52.9613 209.949L76.4453 145.676C76.4682 145.613 76.5277 145.571 76.5944 145.571V145.571C76.6614 145.571 76.7211 145.529 76.7438 145.466L81.8055 131.366C82.9462 128.188 85.9589 126.068 89.3351 126.068H175.642C180.662 126.068 184.035 131.218 182.028 135.82V135.82Z" fill="#B6A9C0"/>
<path d="M76.7438 145.466L80.5086 146.818L76.7438 145.466ZM76.4453 145.676L80.2024 147.048L76.4453 145.676ZM52.9613 209.949L49.2042 208.576L52.9613 209.949ZM215.967 215.344L219.741 216.668L215.967 215.344ZM188.415 145.571V149.571H229.168V145.571V141.571H188.415V145.571ZM236.717 156.221L232.942 154.896L212.192 214.019L215.967 215.344L219.741 216.668L240.491 157.545L236.717 156.221ZM208.418 220.694V216.694H60.4755V220.694V224.694H208.418V220.694ZM52.9613 209.949L56.7184 211.322L80.2024 147.048L76.4453 145.676L72.6882 144.303L49.2042 208.576L52.9613 209.949ZM76.7438 145.466L80.5086 146.818L85.5703 132.717L81.8055 131.366L78.0407 130.014L72.979 144.115L76.7438 145.466ZM89.3351 126.068V130.068H175.642V126.068V122.068H89.3351V126.068ZM175.642 126.068V130.068C177.78 130.068 179.216 132.261 178.362 134.221L182.028 135.82L185.695 137.418C188.853 130.174 183.544 122.068 175.642 122.068V126.068ZM81.8055 131.366L85.5703 132.717C86.1406 131.128 87.647 130.068 89.3351 130.068V126.068V122.068C84.2709 122.068 79.7518 125.248 78.0407 130.014L81.8055 131.366ZM76.5944 145.571V149.571C78.3495 149.571 79.9156 148.47 80.5086 146.818L76.7438 145.466L72.979 144.115C73.5267 142.589 74.9733 141.571 76.5944 141.571V145.571ZM76.4453 145.676L80.2024 147.048C79.6487 148.564 78.2074 149.571 76.5944 149.571V145.571V141.571C74.848 141.571 73.2876 142.662 72.6882 144.303L76.4453 145.676ZM60.4755 220.694V216.694C57.697 216.694 55.7649 213.931 56.7184 211.322L52.9613 209.949L49.2042 208.576C46.3437 216.405 52.1401 224.694 60.4755 224.694V220.694ZM215.967 215.344L212.192 214.019C211.63 215.622 210.117 216.694 208.418 216.694V220.694V224.694C213.514 224.694 218.054 221.476 219.741 216.668L215.967 215.344ZM229.168 145.571V149.571C231.925 149.571 233.855 152.295 232.942 154.896L236.717 156.221L240.491 157.545C243.23 149.741 237.439 141.571 229.168 141.571V145.571ZM188.415 145.571V141.571C186.277 141.571 184.841 139.378 185.695 137.418L182.028 135.82L178.362 134.221C175.204 141.466 180.512 149.571 188.415 149.571V145.571Z" fill="white" mask="url(#path-7-inside-2_288_874)"/>
<circle cx="145.171" cy="88.8681" r="22.0312" fill="white"/>
<circle cx="145.532" cy="81.2837" r="7.22334" fill="#FE9689"/>
<path d="M155.645 104.398C155.645 110.183 152.201 110.899 145.559 110.899C138.918 110.899 134.698 110.183 134.698 104.398C134.698 98.6139 138.927 89.6013 145.559 89.9517C152.395 90.3129 155.645 98.6139 155.645 104.398Z" fill="#FE9689"/>
</svg>
