<svg width="340" height="340" viewBox="0 0 340 340" fill="none" xmlns="http://www.w3.org/2000/svg">
<rect width="340" height="340" rx="8" fill="#FE9689" fill-opacity="0.2"/>
<mask id="path-2-inside-1_636_21" fill="white">
<path d="M186.923 145.568C186.923 148.485 189.287 150.849 192.204 150.849H239.786C244.204 150.849 247.786 154.431 247.786 158.849V246C247.786 250.418 244.204 254 239.786 254H92.7436C88.9404 254 85.663 251.322 84.9043 247.595L67.1634 160.445C66.1541 155.487 69.943 150.849 75.0026 150.849H81.2378C84.1543 150.849 86.5186 148.485 86.5186 145.568V145.568C86.5186 142.652 88.8828 140.288 91.7993 140.288H181.642C184.559 140.288 186.923 142.652 186.923 145.568V145.568Z"/>
</mask>
<path d="M186.923 145.568C186.923 148.485 189.287 150.849 192.204 150.849H239.786C244.204 150.849 247.786 154.431 247.786 158.849V246C247.786 250.418 244.204 254 239.786 254H92.7436C88.9404 254 85.663 251.322 84.9043 247.595L67.1634 160.445C66.1541 155.487 69.943 150.849 75.0026 150.849H81.2378C84.1543 150.849 86.5186 148.485 86.5186 145.568V145.568C86.5186 142.652 88.8828 140.288 91.7993 140.288H181.642C184.559 140.288 186.923 142.652 186.923 145.568V145.568Z" fill="#7D757B"/>
<path d="M192.204 150.849V154.849H239.786V150.849V146.849H192.204V150.849ZM247.786 158.849H243.786V246H247.786H251.786V158.849H247.786ZM239.786 254V250H92.7436V254V258H239.786V254ZM84.9043 247.595L88.8239 246.797L71.083 159.647L67.1634 160.445L63.2437 161.243L80.9847 248.393L84.9043 247.595ZM75.0026 150.849V154.849H81.2378V150.849V146.849H75.0026V150.849ZM91.7993 140.288V144.288H181.642V140.288V136.288H91.7993V140.288ZM181.642 140.288V144.288C182.349 144.288 182.923 144.861 182.923 145.568H186.923H190.923C190.923 140.443 186.768 136.288 181.642 136.288V140.288ZM86.5186 145.568H90.5186C90.5186 144.861 91.092 144.288 91.7993 144.288V140.288V136.288C86.6737 136.288 82.5186 140.443 82.5186 145.568H86.5186ZM81.2378 150.849V154.849C86.3634 154.849 90.5186 150.694 90.5186 145.568H86.5186H82.5186C82.5186 146.276 81.9451 146.849 81.2378 146.849V150.849ZM67.1634 160.445L71.083 159.647C70.5783 157.168 72.4728 154.849 75.0026 154.849V150.849V146.849C67.4132 146.849 61.7299 153.806 63.2437 161.243L67.1634 160.445ZM92.7436 254V250C90.842 250 89.2033 248.661 88.8239 246.797L84.9043 247.595L80.9847 248.393C82.1227 253.983 87.0388 258 92.7436 258V254ZM247.786 246H243.786C243.786 248.209 241.995 250 239.786 250V254V258C246.414 258 251.786 252.627 251.786 246H247.786ZM239.786 150.849V154.849C241.995 154.849 243.786 156.64 243.786 158.849H247.786H251.786C251.786 152.222 246.414 146.849 239.786 146.849V150.849ZM192.204 150.849V146.849C191.496 146.849 190.923 146.276 190.923 145.568H186.923H182.923C182.923 150.694 187.078 154.849 192.204 154.849V150.849Z" fill="white" mask="url(#path-2-inside-1_636_21)"/>
<rect x="92.4453" y="128.765" width="67.0816" height="98.1587" rx="2" transform="rotate(-9.54459 92.4453 128.765)" fill="#FFD8BA" stroke="white" stroke-width="4"/>
<rect x="-2.51246" y="1.29905" width="71.1439" height="96.5879" rx="2" transform="matrix(-0.952878 -0.303353 -0.303353 0.952878 264.077 136.841)" fill="#FFD8BA" stroke="white" stroke-width="4"/>
<rect x="126.802" y="78" width="101.461" height="119.519" rx="2" fill="#FE9689" stroke="white" stroke-width="4"/>
<mask id="path-7-inside-2_636_21" fill="white">
<path d="M214.028 168.82C212.022 173.422 215.395 178.571 220.415 178.571H261.168C266.682 178.571 270.543 184.018 268.717 189.221L247.967 248.344C246.842 251.549 243.815 253.694 240.418 253.694H92.4755C86.9185 253.694 83.0543 248.168 84.9613 242.949L108.445 178.676C108.468 178.613 108.528 178.571 108.594 178.571C108.661 178.571 108.721 178.529 108.744 178.466L113.806 164.366C114.946 161.188 117.959 159.068 121.335 159.068H207.642C212.662 159.068 216.035 164.218 214.028 168.82Z"/>
</mask>
<path d="M214.028 168.82C212.022 173.422 215.395 178.571 220.415 178.571H261.168C266.682 178.571 270.543 184.018 268.717 189.221L247.967 248.344C246.842 251.549 243.815 253.694 240.418 253.694H92.4755C86.9185 253.694 83.0543 248.168 84.9613 242.949L108.445 178.676C108.468 178.613 108.528 178.571 108.594 178.571C108.661 178.571 108.721 178.529 108.744 178.466L113.806 164.366C114.946 161.188 117.959 159.068 121.335 159.068H207.642C212.662 159.068 216.035 164.218 214.028 168.82Z" fill="#B6A9C0"/>
<path d="M108.744 178.466L112.509 179.818L108.744 178.466ZM108.445 178.676L112.202 180.048L108.445 178.676ZM84.9613 242.949L81.2042 241.576L84.9613 242.949ZM247.967 248.344L251.741 249.668L247.967 248.344ZM220.415 178.571V182.571H261.168V178.571V174.571H220.415V178.571ZM268.717 189.221L264.942 187.896L244.192 247.019L247.967 248.344L251.741 249.668L272.491 190.545L268.717 189.221ZM240.418 253.694V249.694H92.4755V253.694V257.694H240.418V253.694ZM84.9613 242.949L88.7184 244.322L112.202 180.048L108.445 178.676L104.688 177.303L81.2042 241.576L84.9613 242.949ZM108.744 178.466L112.509 179.818L117.57 165.717L113.806 164.366L110.041 163.014L104.979 177.115L108.744 178.466ZM121.335 159.068V163.068H207.642V159.068V155.068H121.335V159.068ZM207.642 159.068V163.068C209.78 163.068 211.216 165.261 210.362 167.221L214.028 168.82L217.695 170.418C220.853 163.174 215.544 155.068 207.642 155.068V159.068ZM113.806 164.366L117.57 165.717C118.141 164.128 119.647 163.068 121.335 163.068V159.068V155.068C116.271 155.068 111.752 158.248 110.041 163.014L113.806 164.366ZM108.594 178.571V182.571C110.349 182.571 111.916 181.47 112.509 179.818L108.744 178.466L104.979 177.115C105.527 175.589 106.973 174.571 108.594 174.571V178.571ZM108.445 178.676L112.202 180.048C111.649 181.564 110.207 182.571 108.594 182.571V178.571V174.571C106.848 174.571 105.288 175.662 104.688 177.303L108.445 178.676ZM92.4755 253.694V249.694C89.697 249.694 87.7649 246.931 88.7184 244.322L84.9613 242.949L81.2042 241.576C78.3437 249.405 84.1401 257.694 92.4755 257.694V253.694ZM247.967 248.344L244.192 247.019C243.63 248.622 242.117 249.694 240.418 249.694V253.694V257.694C245.514 257.694 250.054 254.476 251.741 249.668L247.967 248.344ZM261.168 178.571V182.571C263.925 182.571 265.855 185.295 264.942 187.896L268.717 189.221L272.491 190.545C275.23 182.741 269.439 174.571 261.168 174.571V178.571ZM220.415 178.571V174.571C218.277 174.571 216.841 172.378 217.695 170.418L214.028 168.82L210.362 167.221C207.204 174.466 212.512 182.571 220.415 182.571V178.571Z" fill="white" mask="url(#path-7-inside-2_636_21)"/>
<circle cx="177.171" cy="121.868" r="22.0312" fill="white"/>
<circle cx="177.532" cy="114.284" r="7.22334" fill="#FE9689"/>
<path d="M187.645 137.398C187.645 143.183 184.201 143.899 177.559 143.899C170.918 143.899 166.698 143.183 166.698 137.398C166.698 131.614 170.927 122.601 177.559 122.952C184.395 123.313 187.645 131.614 187.645 137.398Z" fill="#FE9689"/>
</svg>
