<svg width="340" height="340" viewBox="0 0 340 340" fill="none" xmlns="http://www.w3.org/2000/svg">
<rect width="340" height="340" rx="8" fill="#B6A9C0"/>
<rect x="49.7295" y="134.483" width="74.132" height="114.382" rx="2" transform="rotate(-48.0842 49.7295 134.483)" fill="#7D757B" stroke="white" stroke-width="4"/>
<rect x="98.4305" y="80.2145" width="74.132" height="114.382" rx="2" transform="rotate(-18.2324 98.4305 80.2145)" fill="#B6A9C0" stroke="white" stroke-width="4"/>
<rect x="167.786" y="56.0271" width="74.132" height="114.382" rx="2" transform="rotate(18.529 167.786 56.0271)" fill="#FFD8BA" stroke="white" stroke-width="4"/>
<rect x="237.684" y="79.3008" width="74.132" height="114.382" rx="2" transform="rotate(37.7163 237.684 79.3008)" fill="#FE9689" stroke="white" stroke-width="4"/>
<path d="M168.94 263.56H153.22L150.7 271H139.96L155.2 228.88H167.08L182.32 271H171.46L168.94 263.56ZM166.3 255.64L161.08 240.22L155.92 255.64H166.3ZM192.118 234.04C190.318 234.04 188.838 233.52 187.678 232.48C186.558 231.4 185.998 230.08 185.998 228.52C185.998 226.92 186.558 225.6 187.678 224.56C188.838 223.48 190.318 222.94 192.118 222.94C193.878 222.94 195.318 223.48 196.438 224.56C197.598 225.6 198.178 226.92 198.178 228.52C198.178 230.08 197.598 231.4 196.438 232.48C195.318 233.52 193.878 234.04 192.118 234.04ZM197.218 237.52V271H186.958V237.52H197.218Z" fill="white"/>
</svg>
