<svg width="340" height="340" viewBox="0 0 340 340" fill="none" xmlns="http://www.w3.org/2000/svg">
<rect width="340" height="340" rx="8" fill="#FE9689"/>
<path d="M168.571 276.258L81.7414 226.188L82.2378 127.148L168.571 176.721V276.258Z" fill="#B6A9C0" stroke="white" stroke-width="4"/>
<path d="M168.57 272.717L84.5438 224.263L85.0242 128.747L168.57 176.721V272.717Z" fill="#B6A9C0" stroke="white" stroke-width="4"/>
<rect x="1.73205" y="1" width="98.4191" height="99.1455" transform="matrix(0.866025 -0.5 0 1 170.535 176.93)" fill="#FFD8BA" stroke="white" stroke-width="4"/>
<rect x="1.73205" y="1" width="95.3042" height="96" transform="matrix(0.866025 -0.5 0 1 170.535 176.93)" fill="#FFD8BA" stroke="white" stroke-width="4"/>
<rect x="3.4641" width="98.2978" height="99.904" transform="matrix(0.866025 -0.5 0.866025 0.5 80.9641 125.903)" fill="#FE9689" stroke="white" stroke-width="4"/>
<rect x="3.4641" width="95.3674" height="96.4083" transform="matrix(0.866025 -0.5 0.866025 0.5 83.7666 127.796)" fill="#FE9689" stroke="white" stroke-width="4"/>
<path d="M173.801 178.105L252.801 132.616V158.605L220.302 178.105L173.801 204.105V178.105Z" fill="#767272"/>
<path d="M166.801 177.606L86.301 131.188V158.402L166.801 203.743V177.606Z" fill="#767272"/>
<path d="M166.801 247.301L109.801 215.305L86.3012 223.109L166.801 269.605L166.801 247.301Z" fill="#767272"/>
<path d="M166.803 179.105L86.3023 205.605L86.3023 223.105L93.8026 227.605L166.803 205.605L166.803 179.105Z" fill="#767272"/>
<path d="M227.304 148.605L227.304 239.105L205.302 251.719L205.302 161.308L227.304 148.605Z" fill="#767272"/>
<path d="M199.302 114.605C199.302 114.605 194.56 124.617 194.56 131.032C194.56 137.427 199.272 147.394 199.302 147.459L186.145 138.055C181.962 142.583 174.228 145.623 165.378 145.623C152.081 145.623 141.303 138.764 141.302 130.303C141.302 121.842 152.081 114.982 165.378 114.982C174.806 114.982 182.969 118.432 186.92 123.455L199.302 114.605Z" fill="white"/>
</svg>
