<svg width="272" height="295" viewBox="0 0 272 295" fill="none" xmlns="http://www.w3.org/2000/svg">
<circle cx="136" cy="143" r="136" fill="#FE9689" fill-opacity="0.2"/>
<path d="M136.268 238.112L52.2414 189.658L52.7217 94.1424L136.268 142.116V238.112Z" fill="#B6A9C0" stroke="white" stroke-width="4"/>
<rect x="1.73205" y="1" width="95.3042" height="96" transform="matrix(0.866025 -0.5 0 1 138.232 142.325)" fill="#FFD8BA" stroke="white" stroke-width="4"/>
<rect x="3.4641" width="95.3674" height="96.4083" transform="matrix(0.866025 -0.5 0.866025 0.5 51.4641 93.1911)" fill="#FE9689" stroke="white" stroke-width="4"/>
<path d="M141.499 143.501L220.499 98.011V124L188 143.501L141.499 169.5V143.501Z" fill="#767272"/>
<path d="M134.499 143.001L53.9985 96.5829V123.797L134.499 169.139V143.001Z" fill="#767272"/>
<path d="M134.499 212.696L77.4985 180.7L53.9988 188.504L134.499 235.001L134.499 212.696Z" fill="#767272"/>
<path d="M134.5 144.5L53.9998 171L53.9998 188.5L61.5001 193L134.5 171L134.5 144.5Z" fill="#767272"/>
<path d="M195.002 114L195.002 204.5L173 217.114L173 126.703L195.002 114Z" fill="#767272"/>
<path d="M167 79.9998C167 79.9998 162.258 90.0123 162.258 96.4275C162.258 102.822 166.969 112.789 167 112.854L153.843 103.45C149.66 107.978 141.926 111.018 133.075 111.018C119.779 111.018 109 104.159 109 95.698C109 87.2367 119.779 80.3768 133.075 80.3767C142.504 80.3767 150.666 83.8268 154.617 88.8504L167 79.9998Z" fill="#F1F1F1"/>
</svg>
