<svg width="276" height="276" viewBox="0 0 276 276" fill="none" xmlns="http://www.w3.org/2000/svg">
<circle cx="137.534" cy="137.534" r="136" transform="rotate(-0.650051 137.534 137.534)" fill="#FE9689" fill-opacity="0.2"/>
<rect x="13.8243" y="120.988" width="74.132" height="114.382" rx="2" transform="rotate(-48.0842 13.8243 120.988)" fill="#3C383B" fill-opacity="0.69" stroke="white" stroke-width="4"/>
<rect x="62.5253" y="66.7188" width="74.132" height="114.382" rx="2" transform="rotate(-18.2324 62.5253 66.7188)" fill="#B6A9C0" stroke="white" stroke-width="4"/>
<rect x="131.881" y="42.5315" width="74.132" height="114.382" rx="2" transform="rotate(18.529 131.881 42.5315)" fill="#FFD8BA" stroke="white" stroke-width="4"/>
<rect x="201.779" y="65.8052" width="74.132" height="114.382" rx="2" transform="rotate(37.7163 201.779 65.8052)" fill="#FE9689" stroke="white" stroke-width="4"/>
<path d="M133.94 226.56H118.22L115.7 234H104.96L120.2 191.88H132.08L147.32 234H136.46L133.94 226.56ZM131.3 218.64L126.08 203.22L120.92 218.64H131.3ZM157.118 197.04C155.318 197.04 153.838 196.52 152.678 195.48C151.558 194.4 150.998 193.08 150.998 191.52C150.998 189.92 151.558 188.6 152.678 187.56C153.838 186.48 155.318 185.94 157.118 185.94C158.878 185.94 160.318 186.48 161.438 187.56C162.598 188.6 163.178 189.92 163.178 191.52C163.178 193.08 162.598 194.4 161.438 195.48C160.318 196.52 158.878 197.04 157.118 197.04ZM162.218 200.52V234H151.958V200.52H162.218Z" fill="#767272"/>
</svg>
