<svg width="395" height="395" viewBox="0 0 395 395" fill="none" xmlns="http://www.w3.org/2000/svg">
<rect width="395" height="395" rx="8" fill="#F06A6A"/>
<path d="M152.278 287.92L142.318 316H133.758L123.798 287.92H131.078L138.038 309.12L145.038 287.92H152.278ZM161.976 293.4V299.08H171.136V304.36H161.976V310.52H172.336V316H155.136V287.92H172.336V293.4H161.976ZM191.097 316L185.257 305.4H183.617V316H176.777V287.92H188.257C190.47 287.92 192.35 288.307 193.897 289.08C195.47 289.853 196.644 290.92 197.417 292.28C198.19 293.613 198.577 295.107 198.577 296.76C198.577 298.627 198.044 300.293 196.977 301.76C195.937 303.227 194.39 304.267 192.337 304.88L198.817 316H191.097ZM183.617 300.56H187.857C189.11 300.56 190.044 300.253 190.657 299.64C191.297 299.027 191.617 298.16 191.617 297.04C191.617 295.973 191.297 295.133 190.657 294.52C190.044 293.907 189.11 293.6 187.857 293.6H183.617V300.56ZM201.711 301.92C201.711 299.147 202.311 296.68 203.511 294.52C204.711 292.333 206.377 290.64 208.511 289.44C210.671 288.213 213.111 287.6 215.831 287.6C219.164 287.6 222.017 288.48 224.391 290.24C226.764 292 228.351 294.4 229.151 297.44H221.631C221.071 296.267 220.271 295.373 219.231 294.76C218.217 294.147 217.057 293.84 215.751 293.84C213.644 293.84 211.937 294.573 210.631 296.04C209.324 297.507 208.671 299.467 208.671 301.92C208.671 304.373 209.324 306.333 210.631 307.8C211.937 309.267 213.644 310 215.751 310C217.057 310 218.217 309.693 219.231 309.08C220.271 308.467 221.071 307.573 221.631 306.4H229.151C228.351 309.44 226.764 311.84 224.391 313.6C222.017 315.333 219.164 316.2 215.831 316.2C213.111 316.2 210.671 315.6 208.511 314.4C206.377 313.173 204.711 311.48 203.511 309.32C202.311 307.16 201.711 304.693 201.711 301.92ZM240.179 293.4V299.08H249.339V304.36H240.179V310.52H250.539V316H233.339V287.92H250.539V293.4H240.179ZM261.82 310.72H270.78V316H254.98V287.92H261.82V310.72Z" fill="white"/>
<path d="M197 62L287.933 219.5H106.067L197 62Z" fill="white"/>
</svg>
